<?xml version="1.0" encoding="utf-8" ?>
<svg baseProfile="full" height="200mm" version="1.1" viewBox="0,0,200,200" width="200mm" xmlns="http://www.w3.org/2000/svg" xmlns:ev="http://www.w3.org/2001/xml-events" xmlns:xlink="http://www.w3.org/1999/xlink"><defs /><rect fill="#1a1a1a" height="200" width="200" x="0" y="0" /><text alignment-baseline="middle" fill="#e1ed5e" style="dominant-baseline: central; font-size:9.0px; font-family:Arial;" text-anchor="middle" x="100.0" y="100.0">2019</text><line stroke="#e1ed5e" stroke-width="0.3" x1="100.0" x2="100.0" y1="15.0" y2="10.0" /><path d="M 100.0 14.0 a86.0,86.0 0 0,1 42.46469731375804,11.215312516191453" fill="none" id="id13" stroke="none" /><text fill="#e1ed5e" style="font-size:6.75px; font-family:Arial;" text-anchor="middle"><textPath startOffset="22.20632615414155" xlink:href="#id13">January</textPath></text><path d="M 108.76106565485865 80.91482961587045 l 1.5754495248224745 -3.4319709265228626 a24.776303171854924,24.776303171854924 0 0,0 0.3860641067275149,0.18126227466307057 l -1.6342918428495874 3.4043436692197893" fill="#ff3204" stroke="none" /><path d="M 109.73455568895987 81.39251694778311 l 1.4659004375400726 -2.8020505937111486 a24.162333256078046,24.162333256078046 0 0,0 0.36687045933972406,0.19596949385067766 l -1.513915943408108 2.776402373358717" fill="#ff2904" stroke="none" /><line stroke="#e1ed5e" stroke-width="0.3" x1="143.23703022742887" x2="145.7803849466894" y1="26.81831364943548" y2="22.513508569990506" /><path d="M 143.74570117128098 25.957352633546492 a86.0,86.0 0 0,1 28.547481713284135,27.462654790039103" fill="none" id="id14" stroke="none" /><text fill="#e1ed5e" style="font-size:6.75px; font-family:Arial;" text-anchor="middle"><textPath startOffset="19.985693538727396" xlink:href="#id14">February</textPath></text><path d="M 110.99172775467656 82.1063720568725 l 1.6052098901471468 -2.6131495599225576 a24.066797908886347,24.066797908886347 0 0,0 0.35112409252428767,0.2198738745265228 l -1.6499531350436976 2.5851313440730905" fill="#ff2803" stroke="none" /><path d="M 111.60114157652 82.49532879139004 l 2.61893520376433 -3.9516455648927806 a25.740709258333915,25.740709258333915 0 0,0 0.3672283645925194,0.24795423104496597 l -2.6865682627633913 3.905979421549145" fill="#ff3f05" stroke="none" /><path d="M 113.06298171725822 83.55741782278167 l 1.6298494578818048 -2.051517350920791 a23.62013982384274,23.62013982384274 0 0,0 0.3161686204720816,0.2556530363680081 l -1.6649214769183776 2.0231582172886533" fill="#ff2203" stroke="none" /><path d="M 114.16331599549186 84.49514656593476 l 1.8487400903515265 -2.023851204598186 a23.741133637754004,23.741133637754004 0 0,0 0.2993554770023919,0.27821829093525463 l -1.8833034511487652 1.9917283275882907" fill="#ff2303" stroke="none" /><path d="M 114.94478906791727 85.2469230424477 l 2.119072992706206 -2.0918894738487044 a23.977662156661808,23.977662156661808 0 0,0 0.2874302113183504,0.2962220985924351 l -2.154767467727666 2.055103179706155" fill="#ff2703" stroke="none" /><path d="M 116.82858285166822 87.43820079747576 l 5.376420709578106 -4.01326231550853 a27.709111271954075,27.709111271954075 0 0,0 0.2820225263255567,0.3846784089647695 l -5.444705848417289 3.9201214628722663" fill="#ff5a08" stroke="none" /><path d="M 117.45458315368197 88.32363383020206 l 2.409374411481926 -1.6117679592176284 a23.898772327911324,23.898772327911324 0 0,0 0.22579032574631067,0.34389415669547785 l -2.4367613725861617 1.5700557385444764" fill="#ff2603" stroke="none" /><line stroke="#e1ed5e" stroke-width="0.3" x1="172.23445277983987" x2="176.4835382374775" y1="55.19839476539836" y2="52.563006222186495" /><path d="M 173.08426987136738 54.67131705675599 a86.0,86.0 0 0,1 12.851231095245387,41.99856678651699" fill="none" id="id15" stroke="none" /><text fill="#e1ed5e" style="font-size:6.75px; font-family:Arial;" text-anchor="middle"><textPath startOffset="22.20632615414155" xlink:href="#id15">March</textPath></text><path d="M 119.04729006885535 91.15688171328212 l 2.4679769603747945 -1.1458119297072429 a23.72099159410687,23.72099159410687 0 0,0 0.16875529445197565,0.3718299219629721 l -2.487334571790117 1.103159998902208" fill="#ff2303" stroke="none" /><path d="M 119.196687751892 91.48605970444005 l 3.5332178589312297 -1.5670206387131453 a24.865123817010723,24.865123817010723 0 0,0 0.17015949016268875,0.3927515638124997 l -3.5596680589365994 1.5059699303140428" fill="#ff3304" stroke="none" /><path d="M 119.61058180528143 92.48833698450437 l 2.4876646023296143 -0.9528783171157349 a23.663916714334942,23.663916714334942 0 0,0 0.14242907098912538,0.38163909897190884 l -2.503698261820365 0.9099160811144927" fill="#ff2203" stroke="none" /><path d="M 120.18372546131832 94.20196356495316 l 10.57593180775048 -3.038073326622775 a32.003645902160116,32.003645902160116 0 0,0 0.1475417292113667,0.5307861008145118 l -10.62666030752821 2.855575922389311" fill="#ff940d" stroke="none" /><path d="M 120.45610955862082 95.25157060432595 l 2.512968476522306 -0.5833295598131941 a23.57978370010873,23.57978370010873 0 0,0 0.08837434907030571,0.396164878413728 l -2.5226372125946495 0.5399865118495022" fill="#ff2103" stroke="none" /><path d="M 120.83666639777658 97.38593545837742 l 0.474006956839832 -0.05946655547979821 a21.477722583047097,21.477722583047097 0 0,0 0.04286303674963573,0.36722432285546563 l -0.4749603465930567 0.05129849429947985" fill="#ff0300" stroke="none" /><path d="M 120.98425023603335 99.18683210126433 l 2.8395098669996655 -0.11003482354696624 a23.841641065859914,23.841641065859914 0 0,0 0.012361670123996327,0.41022365007015477 l -2.840983231579307 0.06114102605181237" fill="#ff2503" stroke="none" /><line stroke="#e1ed5e" stroke-width="0.3" x1="184.98032266829074" x2="189.97916517819016" y1="98.17113171792111" y2="98.06355123074" /><path d="M 185.9800911702706 98.14961562048488 a86.0,86.0 0 0,1 -9.607161424134198,41.387399972396054" fill="none" id="id16" stroke="none" /><text fill="#e1ed5e" style="font-size:6.75px; font-family:Arial;" text-anchor="middle"><textPath startOffset="21.466115282336823" xlink:href="#id16">April</textPath></text><path d="M 120.9764740272857 100.99374915477107 l 2.7455958380998027 0.13007112348364877 a23.748675136016487,23.748675136016487 0 0,0 -0.022859399337404506,0.40816993124523987 l -2.7429500878748687 -0.177312771064312" fill="#ff2403" stroke="none" /><path d="M 120.89721153311464 102.0752229133903 l 2.5938829173771016 0.2575886862351314 a23.6066416171651,23.6066416171651 0 0,0 -0.04363597604132551,0.4040149440550806 l -2.589064639834724 -0.30219995217500345" fill="#ff2203" stroke="none" /><path d="M 120.64145759157962 103.86396538481128 l 13.017418440619169 2.4367879075882306 a34.24353118185404,34.24353118185404 0 0,0 -0.11344403616531053,0.5784486963563578 l -12.973544471478194 -2.6605003310125332" fill="#ffb110" stroke="none" /><path d="M 120.32669344350535 105.2749913415812 l 2.9429172557155447 0.7637180678714622 a24.04039919437919,24.04039919437919 0 0,0 -0.10739409971125242,0.39965339661128674 l -2.9293350796625153 -0.8142623976582972" fill="#ff2803" stroke="none" /><path d="M 120.02730092923936 106.31721596034902 l 2.230758040542492 0.7036485019715115 a23.33910295835214,23.33910295835214 0 0,0 -0.12415041213226516,0.38209567955299806 l -2.2183153773939797 -0.7419430815023048" fill="#ff1e03" stroke="none" /><path d="M 119.67450827220406 107.3425965602758 l 2.443521820663417 0.9119310463636859 a23.60814438277106,23.60814438277106 0 0,0 -0.14536514842260564,0.3795025321154288 l -2.4274623926473042 -0.9538571453122585" fill="#ff2203" stroke="none" /><path d="M 119.41010516605496 108.01547362559984 l 2.023190042529625 0.8354836971122107 a23.188910906439848,23.188910906439848 0 0,0 -0.1555302546852866,0.3676275791815029 l -2.00850880665203 -0.8701858019598772" fill="#ff1c02" stroke="none" /><path d="M 118.97047184881838 109.00673069616215 l 6.0916554093884505 2.8921737004448125 a27.743362242996902,27.743362242996902 0 0,0 -0.20853330383882648,0.4296403714323134 l -6.040968848934909 -2.9966030278424016" fill="#ff5b08" stroke="none" /><line stroke="#e1ed5e" stroke-width="0.3" x1="174.80103733775053" x2="179.2010983576182" y1="140.37084112569926" y2="142.7455964860345" /><path d="M 175.68104954172406 140.8457921977663 a86.0,86.0 0 0,1 -30.038265399797805,32.042727171017184" fill="none" id="id17" stroke="none" /><text fill="#e1ed5e" style="font-size:6.75px; font-family:Arial;" text-anchor="middle"><textPath startOffset="22.206326154141568" xlink:href="#id17">May</textPath></text><path d="M 118.48025628344425 109.97397251340804 l 2.3592913716191686 1.2733323029037933 a23.680975742116093,23.680975742116093 0 0,0 -0.19669146745864724,0.3570521463362082 l -2.337023494709012 -1.3137549676378066" fill="#ff2303" stroke="none" /><path d="M 118.30583269289576 110.29060199501025 l 2.6261071563984437 1.4762630029516346 a24.01260539247524,24.01260539247524 0 0,0 -0.2056485308103466,0.3585655476340876 l -2.6003066294357176 -1.5212483964440375" fill="#ff2703" stroke="none" /><path d="M 117.94076556474637 110.91462005526583 l 7.8363681014450925 4.767409736881379 a30.172614710138955,30.172614710138955 0 0,0 -0.27375952456933567,0.44138752053603814 l -7.753143937207794 -4.90159358878269" fill="#ff7c0b" stroke="none" /><path d="M 117.75023020441432 111.22182372390056 l 0.813174643546755 0.5140948822375253 a21.962053298341733,21.962053298341733 0 0,0 -0.20476491552711057,0.31779969613046966 l -0.8042048646425941 -0.5280161782894479" fill="#ff0a01" stroke="none" /><path d="M 117.55443506779139 111.5257021239791 l 4.0672648417375745 2.6704409936387807 a25.86558304762554,25.86558304762554 0 0,0 -0.24756675568161102,0.3700787094455019 l -4.020694980645242 -2.7400566172900898" fill="#ff4106" stroke="none" /><path d="M 117.35343817320211 111.8261652097733 l 1.5918943440967521 1.0848573822600631 a22.926406795723942,22.926406795723942 0 0,0 -0.2250489856620176,0.3241998487926247 l -1.5729844512725983 -1.1120984932397073" fill="#ff1802" stroke="none" /><path d="M 117.14729908036423 112.12312394758627 l 4.544986175067414 3.2133008517652737 a26.56616579842079,26.56616579842079 0 0,0 -0.2672052883679333,0.3711247751081037 l -4.489001094323878 -3.2910592323245087" fill="#ff4b07" stroke="none" /><path d="M 116.93607887273984 112.41649034213515 l 3.819623375154757 2.8003126995670553 a25.73616658737688,25.73616658737688 0 0,0 -0.2650074315704034,0.3550207614840851 l -3.770854676889262 -2.8656463405604553" fill="#ff3f05" stroke="none" /><path d="M 116.71984013943494 112.70617746262583 l 4.159695071993258 3.16114408597107 a26.224547351133385,26.224547351133385 0 0,0 -0.27622338550536507,0.357055961052764 l -4.104664869269825 -3.2322780411370866" fill="#ff4606" stroke="none" /><path d="M 116.498646956653 112.99209946851258 l 10.9127507403863 8.593404263190875 a34.89009451200491,34.89009451200491 0 0,0 -0.375620257898931,0.4686440259838488 l -10.763212570432515 -8.779976122752974" fill="#ffb911" stroke="none" /><path d="M 115.80600337817218 113.82643327865902 l 4.174107830843343 3.651335637494823 a26.545757668808424,26.545757668808424 0 0,0 -0.30381133024180296,0.34133525020846456 l -4.110637650953202 -3.722645057444154" fill="#ff4b06" stroke="none" /><path d="M 115.56566222782051 114.09645910891815 l 3.9055440433040625 3.536909711821701 a26.269061072313217,26.269061072313217 0 0,0 -0.3064143270591845,0.33255223445817006 l -3.844083308249156 -3.603613201081206" fill="#ff4706" stroke="none" /><path d="M 115.32070863581623 114.36230785411682 l 3.68504017047854 3.4545191506006487 a26.051061632954713,26.051061632954713 0 0,0 -0.3095032955735722,0.32451296803102114 l -3.6250303235260035 -3.517439235214177" fill="#ff4406" stroke="none" /><path d="M 115.07121518719521 114.62390073753431 l 1.3261709783639413 1.2868101548354502 a22.8478662934429,22.8478662934429 0 0,0 -0.2763061829855932,0.27989670458318777 l -1.3038241703228124 -1.3094473533993025" fill="#ff1702" stroke="none" /><path d="M 114.55890576462653 115.13401014063108 l 3.704138664385384 3.8504591633058136 a26.342909227497735,26.342909227497735 0 0,0 -0.32949229866473273,0.3115555342598425 l -3.6373105313298435 -3.9136493343115775" fill="#ff4806" stroke="none" /><path d="M 114.0293411484842 115.62618273729858 l 3.5780172251722555 3.9852727512998367 a26.355801169375347,26.355801169375347 0 0,0 -0.3401876882015565,0.300176081893592 l -3.5088871840641116 -4.046271974965717" fill="#ff4806" stroke="none" /><path d="M 113.75828350139079 115.86535959552629 l 3.1664665486842494 3.6514097443189266 a25.83314633803318,25.83314633803318 0 0,0 -0.33845668601095985,0.2884401304795323 l -3.103144386096242 -3.7053742650214057" fill="#ff4106" stroke="none" /><path d="M 113.20401910651253 116.32954008644616 l 3.340336728957443 4.131027233278963 a26.3125545140652,26.3125545140652 0 0,0 -0.3546462572701141,0.28175243552879026 l -3.268732978969978 -4.187913582812879" fill="#ff4706" stroke="none" /><path d="M 112.92097659922987 116.55440617244103 l 4.542100857114618 5.819357529782195 a28.382113671275597,28.382113671275597 0 0,0 -0.3877149065200488,0.2972832573078162 l -4.4412572221010755 -5.8966801289173825" fill="#ff6409" stroke="none" /><line stroke="#e1ed5e" stroke-width="0.3" x1="143.8653032363475" x2="146.44561519142675" y1="172.8068346515853" y2="177.08958963109032" /><path d="M 144.38136562736335 173.6633856474863 a86.0,86.0 0 0,1 -40.68145358897372,12.25698825130547" fill="none" id="id18" stroke="none" /><text fill="#e1ed5e" style="font-size:6.75px; font-family:Arial;" text-anchor="middle"><textPath startOffset="21.466115282336833" xlink:href="#id18">June</textPath></text><path d="M 109.89434966115114 118.52300852407294 l 0.34183602485291986 0.6399441922946126 a21.725520804070324,21.725520804070324 0 0,0 -0.33137533147112425,0.17335991166031944 l -0.3307697908553 -0.6457335228996488" fill="#ff0701" stroke="none" /><path d="M 109.2508944713604 118.85261126421891 l 2.2360961971814888 4.556992027675945 a26.076051865707406,26.076051865707406 0 0,0 -0.40465976055252095,0.19426127619836153 l -2.1573237686287348 -4.594807580373867" fill="#ff4406" stroke="none" /><path d="M 107.93186726928326 119.44442032107085 l 2.028349101046739 4.972356588889676 a26.3701517783757,26.3701517783757 0 0,0 -0.42177039066349986,0.16783114279384886 l -1.9424576343413729 -5.006534576089594" fill="#ff4806" stroke="none" /><path d="M 107.2578585660854 119.70592522655815 l 2.2014718851835653 5.977250722480786 a27.369772732260607,27.369772732260607 0 0,0 -0.44349515670466394,0.15902158439240788 l -2.0982571678491664 -6.014259847913154" fill="#ff5607" stroke="none" /><path d="M 106.2309692047433 120.05430185196036 l 2.597848957736125 8.36114662941704 a29.755432151859928,29.755432151859928 0 0,0 -0.4904333197192404,0.14776353614553991 l -2.453540663576639 -8.404625534668304" fill="#ff760a" stroke="none" /><path d="M 104.83641907484287 120.43548508189849 l 1.220110430521826 5.15537386553038 a26.297787194297428,26.297787194297428 0 0,0 -0.4414019095973458,0.10046163754311817 l -1.1311883715316182 -5.175612236651182" fill="#ff4706" stroke="none" /><path d="M 104.48393922423573 120.51570834832081 l 1.0925718491785457 4.998927123316025 a26.116931270775684,26.116931270775684 0 0,0 -0.44001872785059626,0.09221020264304722 l -1.0063616598985712 -5.016993306685613" fill="#ff4506" stroke="none" /><path d="M 104.13013068566511 120.58985236759428 l 0.11663460719157619 0.5814560181744401 a21.593038559173017,21.593038559173017 0 0,0 -0.3650584756337316,0.06996432570169948 l -0.1066085169861402 -0.5833775422246078" fill="#ff0500" stroke="none" /><path d="M 103.06178313531738 120.77559828337769 l 0.7662855302371279 5.199597634115717 a26.255759609281284,26.255759609281284 0 0,0 -0.4476874682264411,0.06204540375868376 l -0.6766694708238563 -5.212017603367004" fill="#ff4706" stroke="none" /><path d="M 101.26447882468166 120.96189622390904 l 0.3704192936125733 6.140625402718975 a27.151787609272446,27.151787609272446 0 0,0 -0.4667675852785903,0.024126552549556004 l -0.2646636399205034 -6.146091762030732" fill="#ff5307" stroke="none" /><line stroke="#e1ed5e" stroke-width="0.3" x1="102.19456741930631" x2="102.32365962044197" y1="184.97166512339345" y2="189.96999836594603" /><path d="M 102.22038585953345 185.97133177190398 a86.0,86.0 0 0,1 -42.740103519485714,-10.115201625700543" fill="none" id="id19" stroke="none" /><text fill="#e1ed5e" style="font-size:6.75px; font-family:Arial;" text-anchor="middle"><textPath startOffset="22.20632615414155" xlink:href="#id19">July</textPath></text><path d="M 93.08242187328487 119.8279376855182 l -1.8184060451191773 5.2121191967966665 a26.52021621556097,26.52021621556097 0 0,0 -0.42972908695360645,-0.15408556155297995 l 1.9078546927025104 -5.180046094203728" fill="#ff4a06" stroke="none" /><path d="M 92.06813273071674 119.44442032107085 l -2.0420950043487447 5.0060537137182886 a26.406544718340797,26.406544718340797 0 0,0 -0.41939696760110484,-0.17530796647136365 l 2.127963431447312 -4.970160704226951" fill="#ff4906" stroke="none" /><path d="M 91.40352486487194 119.15986991738527 l -2.3925679962050683 5.33256839055644 a26.844712760814378,26.844712760814378 0 0,0 -0.41996891839801326,-0.19278713226184166 l 2.484004910370501 -5.290594187960523" fill="#ff4f07" stroke="none" /><line stroke="#e1ed5e" stroke-width="0.3" x1="58.666819895761336" x2="56.23545636021788" y1="174.27360380694188" y2="178.64263932499728" /><path d="M 58.180547188652646 175.14741091055294 a86.0,86.0 0 0,1 -31.652253787137756,-30.449443065178592" fill="none" id="id20" stroke="none" /><text fill="#e1ed5e" style="font-size:6.75px; font-family:Arial;" text-anchor="middle"><textPath startOffset="22.20632615414155" xlink:href="#id20">August</textPath></text><path d="M 89.7882731507175 118.34994917583269 l -0.1279591129974772 0.22993596036632336 a21.26314269982024,21.26314269982024 0 0,0 -0.3182902441342296,-0.18073350748451764 l 0.1318981240529141 -0.2276992870871726" fill="#ff0000" stroke="none" /><path d="M 89.4739219176387 118.17145234162733 l -2.598743460760813 4.486280889789617 a26.184610283998076,26.184610283998076 0 0,0 -0.38807104785623053,-0.22927921537873025 l 2.6755823796454257 -4.440883102117137" fill="#ff4606" stroke="none" /><path d="M 88.24862548938628 117.40417183066458 l -3.016126312348736 4.466982186270624 a26.389893114385615,26.389893114385615 0 0,0 -0.3742879990313118,-0.2574386986739233 l 3.0925711960029383 -4.414402698231599" fill="#ff4806" stroke="none" /><path d="M 87.65650970185807 116.9893568818739 l -3.15158541347868 4.337785183932724 a26.361797359132275,26.361797359132275 0 0,0 -0.3648159294925733,-0.26988210312151095 l 3.2257863133898175 -4.282893132071447" fill="#ff4806" stroke="none" /><path d="M 87.07902340077011 116.55440617244103 l -5.492839609313408 7.037447768310804 a29.927315277581776,29.927315277581776 0 0,0 -0.4033667786859457,-0.3204589643240129 l 5.613163880716711 -6.94185488998166" fill="#ff780b" stroke="none" /><path d="M 86.24171649860922 115.8653595955263 l -3.5023785161171053 4.038766506899399 a26.345866643249813,26.345866643249813 0 0,0 -0.34005945823600525,-0.3000629338580355 l 3.5713803272596985 -3.9778804312690745" fill="#ff4806" stroke="none" /><path d="M 85.44109423537348 115.13401014063109 l -3.8820321088318446 4.035379736028106 a26.59950559495637,26.59950559495637 0 0,0 -0.32723731129701455,-0.32027058342834525 l 3.950919372504653 -3.967959049677191" fill="#ff4b07" stroke="none" /><path d="M 84.9287848128048 114.62390073753433 l -2.1928866608477073 2.1278016708397915 a24.0555346271565,24.0555346271565 0 0,0 -0.285795156788199,-0.29965507929844676 l 2.2291883690148637 -2.0897394749588445" fill="#ff2803" stroke="none" /><path d="M 83.72743513129214 113.27417163493432 l -3.801315553884719 3.100882713200577 a25.905657299611548,25.905657299611548 0 0,0 -0.2788954805660672,-0.34796499414669535 l 3.8541289465056474 -3.0349898854756225" fill="#ff4206" stroke="none" /><path d="M 82.05923443525364 110.91462005526583 l -53.82229669423909 32.743860165797486 a84.0,84.0 0 0,0 -0.7408764972070725,-1.2417516244555555 l 54.3779540671444 -31.812546447455823" fill="#4dd2ff" stroke="none" /><line stroke="#e1ed5e" stroke-width="0.3" x1="26.63291911575756" x2="22.317208475507996" y1="142.92168965132927" y2="145.44649492493687" /><path d="M 25.769776987707644 143.4266507060508 a86.0,86.0 0 0,1 -11.730757126820373,-40.83630448921669" fill="none" id="id21" stroke="none" /><text fill="#e1ed5e" style="font-size:6.75px; font-family:Arial;" text-anchor="middle"><textPath startOffset="21.46611528233685" xlink:href="#id21">September</textPath></text><path d="M 80.87730276802145 108.67885076344099 l -19.374477764433202 8.79312155065293 a42.27649819047001,42.27649819047001 0 0,0 -0.2950475102931092,-0.6652542454430642 l 19.52296635945759 -8.45831896871717" fill="#eaff1a" stroke="none" /><path d="M 80.0844068197444 106.66101706037122 l -7.215567867950061 2.4133361348398927 a28.608456542342694,28.608456542342694 0 0,0 -0.15218029915450276,-0.46836280139022024 l 7.256040418120813 -2.2887744334718687" fill="#ff6709" stroke="none" /><path d="M 79.86692584326677 105.97154293290107 l -12.611007342737302 3.7404705902352764 a34.15403460672767,34.15403460672767 0 0,0 -0.16232495875229697,-0.5650744764507074 l 12.673524938375703 -3.522838638279973" fill="#ffb010" stroke="none" /><path d="M 79.76711848015287 105.62410040840567 l -1.0678973221796522 0.2968416416571438 a22.108386056814222,22.108386056814222 0 0,0 -0.09876334404611543,-0.36753514406139715 l 1.0728487425675424 -0.2784155644202077" fill="#ff0c01" stroke="none" /><path d="M 79.58551787078972 104.9243191809786 l -4.235382325681522 1.0216460203655475 a25.356859423440717,25.356859423440717 0 0,0 -0.0986978732881197,-0.4251878549618875 l 4.252340764900197 -0.9485895080550859" fill="#ff3a05" stroke="none" /><path d="M 79.4281124754447 104.21870165774334 l -5.1446793538283195 1.0550255679089735 a26.251743006150342,26.251743006150342 0 0,0 -0.08696835811635518,-0.44344978437960264 l 5.162077644920342 -0.966312056461416" fill="#ff4606" stroke="none" /><path d="M 79.35854240842038 103.8639653848113 l -14.561789394211324 2.725885510289631 a35.814727880611656,35.814727880611656 0 0,0 -0.10821770955612654,-0.6069423857286704 l 14.606553546106639 -2.474824373827747" fill="#ffc512" stroke="none" /><path d="M 79.1416061653843 102.43462659150553 l -1.1673477730128448 0.1362547831940579 a22.175272814754646,22.175272814754646 0 0,0 -0.04099014544071745,-0.3795178387062486 l 1.169520219954614 -0.11614062260302718" fill="#ff0d01" stroke="none" /><path d="M 79.10278846688536 102.07522291339032 l -5.017478574531588 0.49826678974910105 a26.04215837113933,26.04215837113933 0 0,0 -0.040458853841655366,-0.4464600807607579 l 5.02531202465032 -0.411825320439777" fill="#ff4406" stroke="none" /><path d="M 79.04373962182676 101.35467743843564 l -57.45090212028042 3.7138038712850956 a78.57081286232125,78.57081286232125 0 0,0 -0.07562870674668468,-1.350401363453673 l 57.50631717791464 -2.7243307914959853" fill="#46fffa" stroke="none" /><line stroke="#e1ed5e" stroke-width="0.3" x1="15.007084014347285" x2="10.007500721073583" y1="101.09737516637583" y2="101.16192664675087" /><path d="M 14.007167355692545 101.11028546245083 a86.0,86.0 0 0,1 10.666146001902534,-42.60595125391555" fill="none" id="id22" stroke="none" /><text fill="#e1ed5e" style="font-size:6.75px; font-family:Arial;" text-anchor="middle"><textPath startOffset="22.20632615414155" xlink:href="#id22">October</textPath></text><path d="M 79.00019446554 99.90962569577889 l -5.87111368243086 -0.025266796551143982 a26.871168050995884,26.871168050995884 0 0,0 0.00597178809679367,-0.4625215692380413 l 5.86980888721635 0.1263246238496572" fill="#ff4f07" stroke="none" /><path d="M 79.03285615573316 98.82574320788736 l -13.701613777830707 -0.767353587165915 a34.7230846257165,34.7230846257165 0 0,0 0.038558181522640754,-0.5964780019001348 l 13.686375005303653 1.0030906533190616" fill="#ffb711" stroke="none" /><path d="M 79.08570108090925 98.10471618934814 l -2.894733644029222 -0.26232492099794225 a23.906595471346378,23.906595471346378 0 0,0 0.040667252637557515,-0.40951368421875933 l 2.8897892657094357 0.31211413592113185" fill="#ff2603" stroke="none" /><path d="M 79.16333360222342 97.38593545837743 l -5.290446405136532 -0.6637130956081188 a26.331916938485048,26.331916938485048 0 0,0 0.060292567565674075,-0.4492496598731477 l 5.278237838513024 0.7546810975459257" fill="#ff4806" stroke="none" /><path d="M 79.21141760316559 97.0276538004421 l -3.0387860312763966 -0.4344848503334907 a24.069690151961574,24.069690151961574 0 0,0 0.06217327797552293,-0.40964422022658986 l 3.0308568598615713 0.4867281829521726" fill="#ff2803" stroke="none" /><path d="M 79.3925641242962 95.95851677861259 l -6.950903069222323 -1.3631952222097043 a28.08331523310799,28.08331523310799 0 0,0 0.09711572025092668,-0.47357074188955667 l 6.926408053056402 1.4826416202626636" fill="#ff6008" stroke="none" /><path d="M 79.54389044137918 95.25157060432595 l -1.551084008207784 -0.3600495430779428 a22.59232448765588,22.59232448765588 0 0,0 0.09119467059131484,-0.3780607845764442 l 1.5446565373556542 0.38669555931378374" fill="#ff1302" stroke="none" /><path d="M 80.14247586403 93.16781622104843 l -0.5794743061128307 -0.19937404720922958 a21.61281357862366,21.61281357862366 0 0,0 0.12406467104452366,-0.35074753177114826 l 0.5759565542584975 0.20931920540698887" fill="#ff0500" stroke="none" /><path d="M 80.52162464483688 92.15188598940014 l -5.085080850977341 -2.0488512796325087 a26.482320569524205,26.482320569524205 0 0,0 0.1739993295010402,-0.4213531778897803 l 5.049059834590101 2.1360790279756" fill="#ff4a06" stroke="none" /><path d="M 80.65960295795068 91.81776055985345 l -4.703660966599446 -1.989952956514368 a26.107282962383376,26.107282962383376 0 0,0 0.17865995726001857,-0.4123718138639175 l 4.668710299496747 2.070623914964885" fill="#ff4406" stroke="none" /><path d="M 80.95270993114464 91.15688171328213 l -13.292376661502502 -6.1712746907486205 a35.65509838315427,35.65509838315427 0 0,0 0.26323956438448964,-0.5544496570524773 l 13.18417890327626 6.39916676344163" fill="#ffc312" stroke="none" /><path d="M 81.6062741919709 89.86733742301443 l -4.603229092982687 -2.535808549641238 a26.255477436248377,26.255477436248377 0 0,0 0.22147415247859062,-0.3939778045093833 l 4.558897299211666 2.614669864085406" fill="#ff4706" stroke="none" /><line stroke="#e1ed5e" stroke-width="0.3" x1="26.266209847984243" x2="21.928928074336255" y1="57.711370442889674" y2="55.22380399835377" /><path d="M 25.398753493254645 57.213857153982495 a86.0,86.0 0 0,1 29.58750427330803,-30.492523968695096" fill="none" id="id23" stroke="none" /><text fill="#e1ed5e" style="font-size:6.75px; font-family:Arial;" text-anchor="middle"><textPath startOffset="21.46611528233685" xlink:href="#id23">November</textPath></text><path d="M 81.96595687620814 89.24020034530311 l -15.620236694434995 -9.319630447668944 a39.18920850590513,39.18920850590513 0 0,0 0.3506206264727134,-0.5763281204348066 l 15.457500269676064 9.587126341310825" fill="#ffef16" stroke="none" /><path d="M 82.95767976084542 87.72973835380427 l -4.111438827461424 -2.960185552632384 a26.066224209208556,26.066224209208556 0 0,0 0.2653012697195295,-0.3618706337458777 l 4.059874945228261 3.0305186300497624" fill="#ff4406" stroke="none" /><path d="M 83.6137871275137 86.86637796730984 l -3.7831234795277418 -3.0321901875533297 a25.848319357761902,25.848319357761902 0 0,0 0.2812561881209318,-0.3447868305302361 l 3.7303687993304173 3.096861187691648" fill="#ff4106" stroke="none" /><path d="M 84.31358615837235 86.03803664274999 l -0.3300417270917589 -0.2937593350871654 a21.44183943754781,21.44183943754781 0 0,0 0.24776184268622198,-0.27358481490974507 l 0.32493624378949193 0.29939693726646643" fill="#ff0300" stroke="none" /><path d="M 84.80347519578584 85.50635884689758 l -3.7976539053586764 -3.622001321820823 a26.247958532625596,26.247958532625596 0 0,0 0.31464519845240574,-0.32426953509898654 l 3.734744443203152 3.686835052469933" fill="#ff4606" stroke="none" /><path d="M 86.37877921826538 84.01681056812374 l -3.6585082078771083 -4.292906683003444 a26.640366131385427,26.640366131385427 0 0,0 0.35157984218872634,-0.294438006938078 l 3.5840708287292715 4.355245847335335" fill="#ff4c07" stroke="none" /><path d="M 87.80319425747018 82.90503203632743 l -3.1295848359240424 -4.3864068707074555 a26.388401106138563,26.388401106138563 0 0,0 0.37203732589065347,-0.2606359221256134 l 3.0536163704497286 4.439627635597011" fill="#ff4806" stroke="none" /><path d="M 88.39885842347998 82.49532879139004 l -5.0108329255316155 -7.560719974337145 a30.07044283031057,30.07044283031057 0 0,0 0.4339207488977414,-0.2822341253739719 l 4.879945150849586 7.645853023870652" fill="#ff7a0b" stroke="none" /><line stroke="#e1ed5e" stroke-width="0.3" x1="56.762969772571076" x2="54.21961505331055" y1="26.818313649435495" y2="22.513508569990535" /><path d="M 56.25429882871897 25.957352633546506 a86.0,86.0 0 0,1 42.265352541879196,-11.944610805530505" fill="none" id="id24" stroke="none" /><text fill="#e1ed5e" style="font-size:6.75px; font-family:Arial;" text-anchor="middle"><textPath startOffset="22.20632615414155" xlink:href="#id24">December</textPath></text><path d="M 89.3179101791058 81.91981866633112 l -11.442910453465235 -19.367923267122247 a43.495702952500935,43.495702952500935 0 0,0 0.6478856193933388,-0.37529716887574377 l 11.107828101606577 19.56202459338804" fill="#dcff1b" stroke="none" /><path d="M 90.26544431104013 81.39251694778311 l -0.12384244715982118 -0.2367233092399783 a21.267160769680093,21.267160769680093 0 0,0 0.3258326636384879,-0.16690414572494924 l 0.11974929593256957 0.23881998027743276" fill="#ff0000" stroke="none" /><path d="M 90.58718382345135 81.22770947309562 l -2.3710755957852565 -4.728714458084132 a26.289871445226463,26.289871445226463 0 0,0 0.4062770795513393,-0.19935839849385728 l 2.2893272492234913 4.768828016712819" fill="#ff4706" stroke="none" /><path d="M 91.23893434514133 80.91482961587045 l -3.603231657759246 -7.84930656051956 a29.636833439432177,29.636833439432177 0 0,0 0.4654646485879324,-0.2088404198525646 l 3.467584890704539 7.910167310888654" fill="#ff750a" stroke="none" /><path d="M 92.23578459929587 80.48803036053334 l -1.958244676546922 -4.921194055482484 a26.29649630840431,26.29649630840431 0 0,0 0.42201723606933883,-0.16373613116376393 l 1.8732442754779068 4.9541728905368" fill="#ff4706" stroke="none" /><path d="M 93.94186890950719 79.89281104454417 l -1.758777676682428 -5.8374562298905985 a27.09665434085655,27.09665434085655 0 0,0 0.44775257729734963,-0.13071125549719817 l 1.658034881661657 5.866865814306496" fill="#ff5207" stroke="none" /><path d="M 94.98787191387505 79.60689891045804 l -2.0589422943458584 -8.377323489071305 a29.626632727315567,29.626632727315567 0 0,0 0.49628322040619977,-0.11745420400238464 l 1.9144353869771245 8.41152360521456" fill="#ff740a" stroke="none" /><path d="M 96.04723909329186 79.375362276772 l -0.9727301916916882 -5.075492365865107 a26.167864818450994,26.167864818450994 0 0,0 0.44311525713148214,-0.08097648091933536 l 0.8852198134573127 5.091484328135178" fill="#ff4506" stroke="none" /><path d="M 97.11714578562143 79.19881850522333 l -0.6907396021067186 -4.98401887871701 a26.031656325836067,26.031656325836067 0 0,0 0.4443793040646421,-0.057693187439015185 l 0.6048455695342188 4.995170389320162" fill="#ff4306" stroke="none" /><path d="M 97.47563105711357 79.15227682838746 l -0.05784479462843453 -0.47771632935457137 a21.48120568533384,21.48120568533384 0 0,0 0.36746496813944113,-0.04128897075192664 l 0.04961312297927544 0.47864125357709647" fill="#ff0300" stroke="none" /><path d="M 98.19473922651362 79.07773832637324 l -1.0682736955470993 -12.38087157575815 a33.42687368826182,33.42687368826182 0 0,0 0.5736844388664579,-0.044528953680405534 l 0.8549990673183072 12.397425791627018" fill="#ffa60f" stroke="none" /><path d="M 98.91598698831166 79.02799685794201 l -0.2890314195139463 -5.59178512881422 a26.599249957654518,26.599249957654518 0 0,0 0.4574553797035625,-0.019698990932990757 l 0.1927352074210597 5.595931846271403" fill="#ff4b07" stroke="none" /><path d="M 99.63851952072746 79.00311137660856 l -0.09919504353986246 -5.761825051771671 a26.762678854828412,26.762678854828412 0 0,0 0.46067552281239676,-0.003965179665299342 l 1.4114492428159499e-15 5.762678854828412" fill="#ff4e07" stroke="none" /></svg>