<?xml version="1.0" encoding="utf-8" ?>
<svg baseProfile="full" height="200mm" version="1.1" viewBox="0,0,200,200" width="200mm" xmlns="http://www.w3.org/2000/svg" xmlns:ev="http://www.w3.org/2001/xml-events" xmlns:xlink="http://www.w3.org/1999/xlink"><defs /><rect fill="#1a1a1a" height="200" width="200" x="0" y="0" /><text alignment-baseline="middle" fill="#e1ed5e" style="dominant-baseline: central; font-size:9.0px; font-family:Arial;" text-anchor="middle" x="100.0" y="100.0">2020</text><line stroke="#e1ed5e" stroke-width="0.3" x1="100.0" x2="100.0" y1="15.0" y2="10.0" /><path d="M 100.0 14.0 a86.0,86.0 0 0,1 42.35913384403234,11.155469271406648" fill="none" id="id1" stroke="none" /><text fill="#e1ed5e" style="font-size:6.75px; font-family:Arial;" text-anchor="middle"><textPath startOffset="22.145653131862478" xlink:href="#id1">January</textPath></text><line stroke="#e1ed5e" stroke-width="0.3" x1="143.13028292997686" x2="145.6673583964461" y1="26.7553504044142" y2="22.446841604673864" /><path d="M 143.63769802327073 25.89364864446614 a86.0,86.0 0 0,1 29.32050498858742,28.57503671076993" fill="none" id="id2" stroke="none" /><text fill="#e1ed5e" style="font-size:6.75px; font-family:Arial;" text-anchor="middle"><textPath startOffset="20.669276256404974" xlink:href="#id2">February</textPath></text><line stroke="#e1ed5e" stroke-width="0.3" x1="172.87174338648825" x2="177.1583165268699" y1="56.24261187166439" y2="53.66864786411523" /><path d="M 173.72905801456457 55.72781907015455 a86.0,86.0 0 0,1 12.242430191666344,42.057860355516425" fill="none" id="id3" stroke="none" /><text fill="#e1ed5e" style="font-size:6.75px; font-family:Arial;" text-anchor="middle"><textPath startOffset="22.145653131862474" xlink:href="#id3">March</textPath></text><line stroke="#e1ed5e" stroke-width="0.3" x1="184.99686870605535" x2="189.99668451229388" y1="99.2704041080226" y2="99.22748670261217" /><path d="M 185.99683186730306 99.26182062694052 a86.0,86.0 0 0,1 -10.086455211305974,41.156179273409016" fill="none" id="id4" stroke="none" /><text fill="#e1ed5e" style="font-size:6.75px; font-family:Arial;" text-anchor="middle"><textPath startOffset="21.40746469413373" xlink:href="#id4">April</textPath></text><path d="M 119.31412917781788 108.2440532568976 l 15.100279918607864 6.445411579106429 a37.41833682333235,37.41833682333235 0 0,0 -0.2572352394555294,0.5886045685071383 l -14.987410797135368 -6.703678217389411" fill="#ff0000" stroke="none" /><path d="M 119.16976305983485 108.57439118712176 l 57.509289179504535 25.723173561365286 a84.0,84.0 0 0,0 -0.6000621405797757,1.3112440711412445 l -57.05924257406971 -26.70660661472122" fill="#4dd2ff" stroke="none" /><line stroke="#e1ed5e" stroke-width="0.3" x1="174.33088141563837" x2="178.70328620479359" y1="141.23008692659167" y2="143.65538615756765" /><path d="M 175.20536237346943 141.71514677278685 a86.0,86.0 0 0,1 -30.301960400862466,31.631185727798858" fill="none" id="id5" stroke="none" /><text fill="#e1ed5e" style="font-size:6.75px; font-family:Arial;" text-anchor="middle"><textPath startOffset="22.145653131862474" xlink:href="#id5">May</textPath></text><path d="M 117.81537515405839 111.11811171558189 l 31.42255992659598 19.61000139667987 a58.03956569829487,58.03956569829487 0 0,0 -0.5347442451589004,0.8407067720481008 l -31.08129798981119 -20.146521843406642" fill="#9eff22" stroke="none" /><path d="M 117.21940702142032 112.02048342749411 l 40.03504058662739 27.94756760740732 a69.82490153542048,69.82490153542048 0 0,0 -0.694541317970548,0.9769593435177647 l -39.54938417012688 -28.630704177634588" fill="#36ff6b" stroke="none" /><path d="M 116.57777611688842 112.89097897827486 l 49.48427340102164 38.479270299586304 a83.68450810858837,83.68450810858837 0 0,0 -0.8915730332923645,1.1264734021718064 l -48.816433937087716 -39.32306364567279" fill="#4cd6ff" stroke="none" /><path d="M 115.41159269507618 114.26474011684316 l 12.088416113178967 11.188857484784757 a37.47180427094096,37.47180427094096 0 0,0 -0.4409970392828455,0.468323573437939 l -11.894563240159862 -11.394722518167194" fill="#ff0100" stroke="none" /><path d="M 115.16444852881244 114.52719865689866 l 16.36885517787568 15.68099298192061 a43.66788390506072,43.66788390506072 0 0,0 -0.5232102836346434,0.5368598433193885 l -16.09725809309023 -15.959675517307735" fill="#ff750a" stroke="none" /><path d="M 114.91283532996324 114.78537596483092 l 34.175721414167754 33.88362298633646 a69.12566717313115,69.12566717313115 0 0,0 -0.8427013963204012,0.8354988635629086 l -33.58902809771738 -34.46530186012804" fill="#34ff60" stroke="none" /><path d="M 114.65682725009322 115.03919595460226 l 30.169714402847077 30.956784784095596 a64.22654498474486,64.22654498474486 0 0,0 -0.7961874665399208,0.7627295824561117 l -29.633854450441845 -31.470126496857286" fill="#47ff2c" stroke="none" /><path d="M 113.59037401385872 116.0094264158162 l 16.086745717276898 18.950146005405436 a45.85742185743546,45.85742185743546 0 0,0 -0.6045005399668305,0.5042958502470578 l -15.759070843148171 -19.223504039564364" fill="#ff9c0e" stroke="none" /><path d="M 113.31354834802062 116.24036423190432 l 16.753007520687458 20.435945174319155 a47.42519850740934,47.42519850740934 0 0,0 -0.6340279974621142,0.5107280742684358 l -16.399728752870093 -20.720521542380993" fill="#ffb711" stroke="none" /><path d="M 112.7482090630111 116.68781488649013 l 27.014465618507 35.36280267062201 a65.50066477452722,65.50066477452722 0 0,0 -0.8993771862901323,0.6749094075602797 l -26.4034354433061 -35.821331105446305" fill="#37ff2e" stroke="none" /><line stroke="#e1ed5e" stroke-width="0.3" x1="143.1302829299769" x2="145.66735839644613" y1="173.24464959558577" y2="177.55315839532614" /><path d="M 143.63769802327073 174.10635135553383 a86.0,86.0 0 0,1 -40.68552437913181,11.842963189579606" fill="none" id="id6" stroke="none" /><text fill="#e1ed5e" style="font-size:6.75px; font-family:Arial;" text-anchor="middle"><textPath startOffset="21.407464694133747" xlink:href="#id6">June</textPath></text><line stroke="#e1ed5e" stroke-width="0.3" x1="101.45913802915013" x2="101.54496967792366" y1="184.9874750549273" y2="189.98673829345242" /><path d="M 101.47630435890484 185.9873277026323 a86.0,86.0 0 0,1 -42.54439059252881,-10.42667462771756" fill="none" id="id7" stroke="none" /><text fill="#e1ed5e" style="font-size:6.75px; font-family:Arial;" text-anchor="middle"><textPath startOffset="22.145653131862474" xlink:href="#id7">July</textPath></text><line stroke="#e1ed5e" stroke-width="0.3" x1="58.13341422392154" x2="55.67067388415222" y1="173.97424548756322" y2="178.32567169271397" /><path d="M 57.64086615596768 174.84453072859336 a86.0,86.0 0 0,1 -31.369924170532247,-30.572349798747897" fill="none" id="id8" stroke="none" /><text fill="#e1ed5e" style="font-size:6.75px; font-family:Arial;" text-anchor="middle"><textPath startOffset="22.145653131862474" xlink:href="#id8">August</textPath></text><line stroke="#e1ed5e" stroke-width="0.3" x1="26.387840678322732" x2="22.057713659400548" y1="142.50000000000003" y2="145.00000000000006" /><path d="M 25.521815274538298 143.00000000000003 a86.0,86.0 0 0,1 -11.493303480769221,-40.785679425670985" fill="none" id="id9" stroke="none" /><text fill="#e1ed5e" style="font-size:6.75px; font-family:Arial;" text-anchor="middle"><textPath startOffset="21.40746469413373" xlink:href="#id9">September</textPath></text><line stroke="#e1ed5e" stroke-width="0.3" x1="15.003131293944662" x2="10.003315487706104" y1="100.72959589197737" y2="100.7725132973878" /><path d="M 14.003168132696942 100.73817937305945 a86.0,86.0 0 0,1 10.791469493833604,-42.45332614584628" fill="none" id="id10" stroke="none" /><text fill="#e1ed5e" style="font-size:6.75px; font-family:Arial;" text-anchor="middle"><textPath startOffset="22.145653131862435" xlink:href="#id10">October</textPath></text><line stroke="#e1ed5e" stroke-width="0.3" x1="26.387840678322718" x2="22.05771365940052" y1="57.49999999999999" y2="54.99999999999999" /><path d="M 25.521815274538284 56.99999999999999 a86.0,86.0 0 0,1 29.574782752854787,-30.34633250058573" fill="none" id="id11" stroke="none" /><text fill="#e1ed5e" style="font-size:6.75px; font-family:Arial;" text-anchor="middle"><textPath startOffset="21.40746469413373" xlink:href="#id11">November</textPath></text><line stroke="#e1ed5e" stroke-width="0.3" x1="56.869717070023135" x2="54.33264160355391" y1="26.7553504044142" y2="22.446841604673864" /><path d="M 56.362301976729285 25.89364864446614 a86.0,86.0 0 0,1 42.16139366436587,-11.88097634709845" fill="none" id="id12" stroke="none" /><text fill="#e1ed5e" style="font-size:6.75px; font-family:Arial;" text-anchor="middle"><textPath startOffset="22.145653131862474" xlink:href="#id12">December</textPath></text></svg>