<?xml version="1.0" encoding="utf-8" ?>
<svg baseProfile="full" height="200mm" version="1.1" viewBox="0,0,200,200" width="200mm" xmlns="http://www.w3.org/2000/svg" xmlns:ev="http://www.w3.org/2001/xml-events" xmlns:xlink="http://www.w3.org/1999/xlink"><defs /><rect fill="#1a1a1a" height="200" width="200" x="0" y="0" /><text alignment-baseline="middle" fill="#e1ed5e" style="dominant-baseline: central; font-size:9.0px; font-family:Arial;" text-anchor="middle" x="100.0" y="100.0">2019</text><line stroke="#e1ed5e" stroke-width="0.3" x1="100.0" x2="100.0" y1="15.0" y2="10.0" /><path d="M 100.0 14.0 a86.0,86.0 0 0,1 42.46469731375804,11.215312516191453" fill="none" id="id13" stroke="none" /><text fill="#e1ed5e" style="font-size:6.75px; font-family:Arial;" text-anchor="middle"><textPath startOffset="22.20632615414155" xlink:href="#id13">January</textPath></text><path d="M 108.76106565485865 80.91482961587045 l 4.486043181775165 -9.772429730310362 a31.75290501504618,31.75290501504618 0 0,0 0.4947734464503513,0.23230276729604563 l -4.653594839525114 9.693761980374314" fill="#ff890c" stroke="none" /><path d="M 109.73455568895987 81.39251694778311 l 5.07728126460492 -9.705160471743019 a31.953032676943465,31.953032676943465 0 0,0 0.4851610832136268,0.25915624846038454 l -5.243587394346859 9.616325496780881" fill="#ff8c0c" stroke="none" /><line stroke="#e1ed5e" stroke-width="0.3" x1="143.23703022742887" x2="145.7803849466894" y1="26.81831364943548" y2="22.513508569990506" /><path d="M 143.74570117128098 25.957352633546492 a86.0,86.0 0 0,1 28.547481713284135,27.462654790039103" fill="none" id="id14" stroke="none" /><text fill="#e1ed5e" style="font-size:6.75px; font-family:Arial;" text-anchor="middle"><textPath startOffset="19.985693538727396" xlink:href="#id14">February</textPath></text><path d="M 110.99172775467656 82.1063720568725 l 5.559792392639787 -9.050884331864934 a31.622137197290073,31.622137197290073 0 0,0 0.4613531999193484,0.28889933146487207 l -5.714764744931399 8.953840659077118" fill="#ff880c" stroke="none" /><path d="M 111.60114157652 82.49532879139004 l 9.07092344252296 -13.68688860251519 a37.41988342582775,37.41988342582775 0 0,0 0.5338486385824973,0.36045698381987545 l -9.305176775511999 13.528719706396645" fill="#ffd313" stroke="none" /><path d="M 113.06298171725822 83.55741782278167 l 5.645133806301604 -7.105619415273087 a30.075095755183803,30.075095755183803 0 0,0 0.4025717716490317,0.32551837568336833 l -5.766608976515126 7.007394942325589" fill="#ff730a" stroke="none" /><path d="M 114.16331599549186 84.49514656593476 l 6.403281685090033 -7.009795167738714 a30.494168980603963,30.494168980603963 0 0,0 0.3845055017281744,0.35735595893293287 l -6.522995070613055 6.898534622731141" fill="#ff790b" stroke="none" /><path d="M 114.94478906791727 85.2469230424477 l 7.3396046066077965 -7.245451983778351 a31.31340730459997,31.31340730459997 0 0,0 0.37536684018037697,0.38684852448265805 l -7.463235710491282 7.118039263745579" fill="#ff840c" stroke="none" /><path d="M 116.82858285166822 87.43820079747576 l 18.62172862516018 -13.900303896948246 a44.23762521034851,44.23762521034851 0 0,0 0.4502492590981538,0.6141394834095871 l -18.85824049677196 13.577701969867165" fill="#d8ff1c" stroke="none" /><path d="M 117.45458315368197 88.32363383020206 l 8.345090325072833 -5.582506869265103 a31.040165112139157,31.040165112139157 0 0,0 0.29326062844256967,0.44665605657327956 l -8.439947588873329 5.438032748714149" fill="#ff800b" stroke="none" /><line stroke="#e1ed5e" stroke-width="0.3" x1="172.23445277983987" x2="176.4835382374775" y1="55.19839476539836" y2="52.563006222186495" /><path d="M 173.08426987136738 54.67131705675599 a86.0,86.0 0 0,1 12.851231095245387,41.99856678651699" fill="none" id="id15" stroke="none" /><text fill="#e1ed5e" style="font-size:6.75px; font-family:Arial;" text-anchor="middle"><textPath startOffset="22.20632615414155" xlink:href="#id15">March</textPath></text><path d="M 119.04729006885535 91.15688171328212 l 8.548065654046173 -3.968625217975873 a30.424405156116638,30.424405156116638 0 0,0 0.21644455419486786,0.4769068843555077 l -8.615112525204388 3.8208963247783023" fill="#ff780b" stroke="none" /><path d="M 119.196687751892 91.48605970444005 l 12.23762568010602 -5.4275204007298035 a34.38721255477512,34.38721255477512 0 0,0 0.23532199555883757,0.5431556104619628 l -12.329238385507539 5.216065645681238" fill="#ffac0f" stroke="none" /><path d="M 119.61058180528143 92.48833698450437 l 8.616255616393943 -3.3003818697664644 a30.226721049935527,30.226721049935527 0 0,0 0.18192946882634223,0.4874805268134087 l -8.67178967372191 3.1515782059237223" fill="#ff750a" stroke="none" /><path d="M 120.18372546131832 94.20196356495316 l 18.388554355673453 -5.282350294863267 a40.13222820084475,40.13222820084475 0 0,0 0.1850157436424503,0.6656000690935905 l -18.476756869882266 4.965038922350725" fill="#fff417" stroke="none" /><path d="M 120.45610955862082 95.25157060432595 l 8.703897916696468 -2.0204156907817303 a29.935318601361125,29.935318601361125 0 0,0 0.11219417146711591,0.5029444716208213 l -8.737386475165621 1.8702930496109453" fill="#ff710a" stroke="none" /><path d="M 120.83666639777658 97.38593545837742 l 3.701299906762468 -0.4643466790451257 a24.730313504002055,24.730313504002055 0 0,0 0.049354224241109725,0.4228368531810186 l -3.708744484007166 0.40056608753925443" fill="#ff2903" stroke="none" /><path d="M 120.98425023603335 99.18683210126433 l 9.834904117070439 -0.38111575229941086 a30.842285720736815,30.842285720736815 0 0,0 0.015991439553032276,0.5306780263118995 l -9.840007251079115 0.21176757856251227" fill="#ff7d0b" stroke="none" /><line stroke="#e1ed5e" stroke-width="0.3" x1="184.98032266829074" x2="189.97916517819016" y1="98.17113171792111" y2="98.06355123074" /><path d="M 185.9800911702706 98.14961562048488 a86.0,86.0 0 0,1 -9.607161424134198,41.387399972396054" fill="none" id="id16" stroke="none" /><text fill="#e1ed5e" style="font-size:6.75px; font-family:Arial;" text-anchor="middle"><textPath startOffset="21.466115282336823" xlink:href="#id16">April</textPath></text><path d="M 120.9764740272857 100.99374915477107 l 9.509624222743497 0.45051332370012304 a30.520289654869813,30.520289654869813 0 0,0 -0.029377448852119424,0.5245540839084712 l -9.50046042300385 -0.6141391239440176" fill="#ff790b" stroke="none" /><path d="M 120.89721153311464 102.0752229133903 l 8.984152539771307 0.8921821544650959 a30.02834347234448,30.02834347234448 0 0,0 -0.055506246825348805,0.51391890912702 l -8.967463991444907 -1.0466973854769073" fill="#ff720a" stroke="none" /><path d="M 120.64145759157962 103.86396538481128 l 45.08702847035717 8.440039495298487 a66.8701907884521,66.8701907884521 0 0,0 -0.22153160262298766,1.1295848690738544 l -44.93506693475852 -9.214888091440287" fill="#38ff7f" stroke="none" /><path d="M 120.32669344350535 105.2749913415812 l 10.193065138039836 2.645207913268013 a31.53070281665658,31.53070281665658 0 0,0 -0.1408550421679189,0.524174011268671 l -10.146022019530141 -2.8202728577122325" fill="#ff860c" stroke="none" /><path d="M 120.02730092923936 106.31721596034902 l 4.037389391148972 1.2735146283578007 a25.233479963859942,25.233479963859942 0 0,0 -0.1342273926566394,0.41310943661730054 l -4.0148697474760855 -1.3428229649528964" fill="#ff3004" stroke="none" /><path d="M 119.67450827220406 107.3425965602758 l 8.463363023840094 3.158557223765976 a30.03354843951744,30.03354843951744 0 0,0 -0.18492902939691017,0.48279134083601405 l -8.407739714849676 -3.303772131435134" fill="#ff720a" stroke="none" /><path d="M 119.41010516605496 108.01547362559984 l 7.007505171980746 2.893774784151886 a28.581494657172172,28.581494657172172 0 0,0 -0.19169883231047452,0.4531194126623362 l -6.9566553584779625 -3.0139687224803855" fill="#ff5e08" stroke="none" /><path d="M 118.97047184881838 109.00673069616215 l 21.099009924861768 10.017310157771279 a44.35625660516691,44.35625660516691 0 0,0 -0.3334043168517936,0.6869116438113562 l -20.92345235139526 -10.379010757547912" fill="#d7ff1c" stroke="none" /><line stroke="#e1ed5e" stroke-width="0.3" x1="174.80103733775053" x2="179.2010983576182" y1="140.37084112569926" y2="142.7455964860345" /><path d="M 175.68104954172406 140.8457921977663 a86.0,86.0 0 0,1 -30.038265399797805,32.042727171017184" fill="none" id="id17" stroke="none" /><text fill="#e1ed5e" style="font-size:6.75px; font-family:Arial;" text-anchor="middle"><textPath startOffset="22.206326154141568" xlink:href="#id17">May</textPath></text><path d="M 118.48025628344425 109.97397251340804 l 8.1716231007937 4.4103037829763485 a30.285806564836506,30.285806564836506 0 0,0 -0.251550434461706,0.4566371063108826 l -8.094496256880484 -4.550311407685037" fill="#ff760a" stroke="none" /><path d="M 118.30583269289576 110.29060199501025 l 9.095764161447175 5.113172964934623 a31.43443642225133,31.43443642225133 0 0,0 -0.269210506791278,0.46939121041174126 l -9.006401658503517 -5.2689840212046795" fill="#ff850c" stroke="none" /><path d="M 117.94076556474637 110.91462005526583 l 13.847039861985609 8.424120946135895 a37.20821787410769,37.20821787410769 0 0,0 -0.3375943428550501,0.5443095730612422 l -13.699980879462595 -8.66122685056241" fill="#ffd013" stroke="none" /><path d="M 117.75023020441432 111.22182372390056 l 1.4509733876224857 0.9173158542992319 a22.71662230794587,22.71662230794587 0 0,0 -0.21180019849505752,0.3287186115298677 l -1.4349683257503778 -0.9421560657505526" fill="#ff0c01" stroke="none" /><path d="M 117.55443506779139 111.5257021239791 l 7.674821728009888 5.039051883474473 a30.181227175115552,30.181227175115552 0 0,0 -0.2888729970043706,0.43182593571860844 l -7.586945625594796 -5.170414733398888" fill="#ff740a" stroke="none" /><path d="M 117.35343817320211 111.8261652097733 l 2.822717301855516 1.9236488365618858 a24.41586852975936,24.41586852975936 0 0,0 -0.23966976140824486,0.3452621667240481 l -2.789186633285135 -1.9719522654729535" fill="#ff2403" stroke="none" /><path d="M 117.14729908036423 112.12312394758627 l 7.886326592959542 5.575625311573176 a30.6582474986861,30.6582474986861 0 0,0 -0.30836387628917306,0.428290453898877 l -7.789182924294766 -5.710549370923184" fill="#ff7b0b" stroke="none" /><path d="M 116.93607887273984 112.41649034213515 l 6.6960542308559345 4.909134712501821 a29.302815539806602,29.302815539806602 0 0,0 -0.3017335102188168,0.40422134552363204 l -6.610559453942026 -5.023668937534768" fill="#ff6809" stroke="none" /><path d="M 116.71984013943494 112.70617746262583 l 7.19441950505357 5.467371111771691 a30.036139600987298,30.036139600987298 0 0,0 -0.31637091984879984,0.40895206113374544 l -7.099241767986702 -5.5904011670186895" fill="#ff720a" stroke="none" /><path d="M 116.498646956653 112.99209946851258 l 21.459102862128457 16.89828260598009 a48.3138252663185,48.3138252663185 0 0,0 -0.5201376425155352,0.6489516838567776 l -21.16504730755807 -17.26516212341512" fill="#aaff21" stroke="none" /><path d="M 115.80600337817218 113.82643327865902 l 7.492355515833584 6.554000474447926 a30.954411755332686,30.954411755332686 0 0,0 -0.35426756808265036,0.39802336830556145 l -7.378429098102595 -6.681998012494353" fill="#ff7f0b" stroke="none" /><path d="M 115.56566222782051 114.09645910891815 l 6.873826842349048 6.225023875423302 a30.27364101678453,30.27364101678453 0 0,0 -0.3531255766718769,0.38324807032890523 l -6.765654857681449 -6.342423200553542" fill="#ff760a" stroke="none" /><path d="M 115.32070863581623 114.36230785411682 l 6.52191760798666 6.113933154900651 a29.939551885187527,29.939551885187527 0 0,0 -0.35570105000018387,0.37295112885113524 l -6.415710006607512 -6.225291400334293" fill="#ff710a" stroke="none" /><path d="M 115.07121518719521 114.62390073753431 l 4.5933154051098 4.456985565277028 a27.40025520896681,27.40025520896681 0 0,0 -0.33135960410419124,0.335665529517263 l -4.515915175950074 -4.5353915887749565" fill="#ff4e07" stroke="none" /><path d="M 114.55890576462653 115.13401014063108 l 6.538339475541592 6.7966162790994105 a30.431006093876974,30.431006093876974 0 0,0 -0.38062546782364015,0.35990513727108725 l -6.420378173327143 -6.90815605311642" fill="#ff780b" stroke="none" /><path d="M 114.0293411484842 115.62618273729858 l 6.3028191982215205 7.020215953776589 a30.434456098956055,30.434456098956055 0 0,0 -0.39283295527384665,0.3466294091246434 l -6.181043890041086 -7.127668504673521" fill="#ff780b" stroke="none" /><path d="M 113.75828350139079 115.86535959552629 l 5.602318904292152 6.460311998689725 a29.55111736709324,29.55111736709324 0 0,0 -0.3871682187338543,0.32995315544011683 l -5.49028520898125 -6.5557895443527885" fill="#ff6c09" stroke="none" /><path d="M 113.20401910651253 116.32954008644616 l 5.916526538576666 7.317026467839468 a30.4097907847489,30.4097907847489 0 0,0 -0.4098696871264819,0.3256252680804511 l -5.789699358732833 -7.417785649925046" fill="#ff770b" stroke="none" /><path d="M 112.92097659922987 116.55440617244103 l 8.032563711061496 10.291352302801004 a34.05503780127157,34.05503780127157 0 0,0 -0.4652100950120433,0.35670326327911617 l -7.854224887555959 -10.428094907907491" fill="#ffa80f" stroke="none" /><line stroke="#e1ed5e" stroke-width="0.3" x1="143.8653032363475" x2="146.44561519142675" y1="172.8068346515853" y2="177.08958963109032" /><path d="M 144.38136562736335 173.6633856474863 a86.0,86.0 0 0,1 -40.68145358897372,12.25698825130547" fill="none" id="id18" stroke="none" /><text fill="#e1ed5e" style="font-size:6.75px; font-family:Arial;" text-anchor="middle"><textPath startOffset="21.466115282336833" xlink:href="#id18">June</textPath></text><path d="M 109.89434966115114 118.52300852407294 l 0.6536487759646644 1.2236824312447723 a22.387319507127764,22.387319507127764 0 0,0 -0.34146962410376536,0.17864076847998459 l -0.6324882493344034 -1.2347526186694735" fill="#ff0701" stroke="none" /><path d="M 109.2508944713604 118.85261126421891 l 3.9294963683800344 8.008011303833916 a29.92015620667282,29.92015620667282 0 0,0 -0.46431427996232777,0.22289907071424325 l -3.791069420417474 -8.07446465104772" fill="#ff710a" stroke="none" /><path d="M 107.93186726928326 119.44442032107085 l 3.544619417859635 8.689387693866466 a30.384550352136515,30.384550352136515 0 0,0 -0.4859776227251117,0.19338052551741597 l -3.394520719092657 -8.749115063789953" fill="#ff770b" stroke="none" /><path d="M 107.2578585660854 119.70592522655815 l 3.899736157959424 10.588234591832537 a32.283556791782246,32.283556791782246 0 0,0 -0.5231172804544082,0.18757124514959275 l -3.7168993168752813 -10.653793378022089" fill="#ff900d" stroke="none" /><path d="M 106.2309692047433 120.05430185196036 l 4.682599903459993 15.070893280047228 a36.78158946730196,36.78158946730196 0 0,0 -0.6062394568808703,0.18265497530011032 l -4.422485472138876 -15.149263624453065" fill="#ffcb12" stroke="none" /><path d="M 104.83641907484287 120.43548508189849 l 2.1531713218471755 9.097867605240394 a30.34918936077924,30.34918936077924 0 0,0 -0.5094037015207241,0.11593862399005231 l -1.9962474709335896 -9.13358296280813" fill="#ff770a" stroke="none" /><path d="M 104.48393922423573 120.51570834832081 l 1.9214823354594033 8.791504349048031 a29.99903567527171,29.99903567527171 0 0,0 -0.5054245224188493,0.10591662282345354 l -1.7698663516111761 -8.823276952598025" fill="#ff720a" stroke="none" /><path d="M 104.13013068566511 120.58985236759428 l 0.22432691951264314 1.1183322045652693 a22.140609261134525,22.140609261134525 0 0,0 -0.3743158724198288,0.07173852782854505 l -0.20504343252111 -1.1220279307422825" fill="#ff0300" stroke="none" /><path d="M 103.06178313531738 120.77559828337769 l 1.3584620306216013 9.217785905823273 a30.317349198899585,30.317349198899585 0 0,0 -0.5169417113871806,0.07164341081466138 l -1.1995917280475903 -9.239803882130538" fill="#ff760a" stroke="none" /><path d="M 101.26447882468166 120.96189622390904 l 0.6689608987360824 11.089698509335609 a32.1098569618154,32.1098569618154 0 0,0 -0.5520019754643742,0.02853219694026344 l -0.4779708548582286 -11.099570513038072" fill="#ff8e0d" stroke="none" /><line stroke="#e1ed5e" stroke-width="0.3" x1="102.19456741930631" x2="102.32365962044197" y1="184.97166512339345" y2="189.96999836594603" /><path d="M 102.22038585953345 185.97133177190398 a86.0,86.0 0 0,1 -42.740103519485714,-10.115201625700543" fill="none" id="id19" stroke="none" /><text fill="#e1ed5e" style="font-size:6.75px; font-family:Arial;" text-anchor="middle"><textPath startOffset="22.20632615414155" xlink:href="#id19">July</textPath></text><path d="M 93.08242187328487 119.8279376855182 l -3.2372520494412385 9.27897462563494 a30.82747022049869,30.82747022049869 0 0,0 -0.4995231005383482,-0.17911121167240568 l 3.3964947106093133 -9.221875872922576" fill="#ff7d0b" stroke="none" /><path d="M 92.06813273071674 119.44442032107085 l -3.6743473200557926 9.00740661325023 a30.728011211179044,30.728011211179044 0 0,0 -0.48803184437191255,-0.20399735052801468 l 3.8288506239251676 -8.942824219702242" fill="#ff7c0b" stroke="none" /><path d="M 91.40352486487194 119.15986991738527 l -4.233953216916843 9.436657652964088 a31.3429622208672,31.3429622208672 0 0,0 -0.4903412474765503,-0.2250916169970195 l 4.395762460160813 -9.362378965632994" fill="#ff840c" stroke="none" /><line stroke="#e1ed5e" stroke-width="0.3" x1="58.666819895761336" x2="56.23545636021788" y1="174.27360380694188" y2="178.64263932499728" /><path d="M 58.180547188652646 175.14741091055294 a86.0,86.0 0 0,1 -31.652253787137756,-30.449443065178592" fill="none" id="id20" stroke="none" /><text fill="#e1ed5e" style="font-size:6.75px; font-family:Arial;" text-anchor="middle"><textPath startOffset="22.20632615414155" xlink:href="#id20">August</textPath></text><path d="M 89.7882731507175 118.34994917583269 l -0.4431981807357886 0.7964043899092992 a21.911418992381833,21.911418992381833 0 0,0 -0.3279943608933956,-0.18624375824226225 l 0.45684130855039146 -0.7886574658724038" fill="#ff0000" stroke="none" /><path d="M 89.4739219176387 118.17145234162733 l -4.645365545055728 8.019419764030637 a30.267713547521637,30.267713547521637 0 0,0 -0.44858499649991623,-0.26503192288200467 l 4.782718412584026 -7.938269268854882" fill="#ff750a" stroke="none" /><path d="M 88.24862548938628 117.40417183066458 l -5.367583760972304 7.949567942632786 a30.592006354542747,30.592006354542747 0 0,0 -0.4338865942034928,-0.29843115588235414 l 5.5036272397986865 -7.855995997385331" fill="#ff7a0b" stroke="none" /><path d="M 87.65650970185807 116.9893568818739 l -5.623142802862029 7.739592090086899 a30.566661941467082,30.566661941467082 0 0,0 -0.4230062554440572,-0.31292991512620144 l 5.75553402872465 -7.641652226220931" fill="#ff790b" stroke="none" /><path d="M 87.07902340077011 116.55440617244103 l -9.624223078885365 12.330592561520879 a36.641904704682986,36.641904704682986 0 0,0 -0.4938674561535764,-0.3923581759209072 l 9.835048027756299 -12.16310047159484" fill="#ffc912" stroke="none" /><path d="M 86.24171649860922 115.8653595955263 l -6.251490374851701 7.208903842907999 a30.541982316225344,30.541982316225344 0 0,0 -0.3942208506764118,-0.34785406544957576 l 6.3746535784347005 -7.100226635686134" fill="#ff790b" stroke="none" /><path d="M 85.44109423537348 115.13401014063109 l -6.88983310483599 7.161994573052896 a30.93800616204946,30.93800616204946 0 0,0 -0.38061120787445,-0.3725081749454815 l 7.012094265086234 -7.042336295184845" fill="#ff7e0b" stroke="none" /><path d="M 84.9287848128048 114.62390073753433 l -3.870535419896701 3.755657727571335 a26.39314466738481,26.39314466738481 0 0,0 -0.3135674610961864,-0.328774229333162 l 3.9346094323718446 -3.688476381655673" fill="#ff4006" stroke="none" /><path d="M 83.72743513129214 113.27417163493432 l -6.698586285819416 5.464300482855893 a29.64463058756747,29.64463058756747 0 0,0 -0.31914857045712325,-0.3981869129813022 l 6.791652768331399 -5.348185736296331" fill="#ff6d0a" stroke="none" /><path d="M 82.05923443525364 110.91462005526583 l -20.357807995296856 12.385075688371796 a44.82919315000134,44.82919315000134 0 0,0 -0.3953916142094319,-0.6626990882981669 l 20.56798048520452 -12.032814506187519" fill="#d2ff1c" stroke="none" /><line stroke="#e1ed5e" stroke-width="0.3" x1="26.63291911575756" x2="22.317208475507996" y1="142.92168965132927" y2="145.44649492493687" /><path d="M 25.769776987707644 143.4266507060508 a86.0,86.0 0 0,1 -11.730757126820373,-40.83630448921669" fill="none" id="id21" stroke="none" /><text fill="#e1ed5e" style="font-size:6.75px; font-family:Arial;" text-anchor="middle"><textPath startOffset="21.46611528233685" xlink:href="#id21">September</textPath></text><path d="M 80.87730276802145 108.67885076344099 l -37.195791021698746 16.881338201894515 a61.84735547396708,61.84735547396708 0 0,0 -0.43163244430969305,-0.9732172142809521 l 37.480864550739724 -16.238572651120865" fill="#32ff44" stroke="none" /><path d="M 80.0844068197444 106.66101706037122 l -12.792912069810475 4.278748053224839 a34.48948791203276,34.48948791203276 0 0,0 -0.18346395515502184,-0.5646439944456721 l 12.864668275981748 -4.057905158801363" fill="#ffad10" stroke="none" /><path d="M 79.86692584326677 105.97154293290107 l -23.196219246296465 6.880082894043304 a45.195043458344145,45.195043458344145 0 0,0 -0.2147999101616791,-0.747746666373647 l 23.31121179334425 -6.479778752165061" fill="#cdff1d" stroke="none" /><path d="M 79.76711848015287 105.62410040840567 l -1.9422770364102968 0.5398915158474494 a23.015917392913416,23.015917392913416 0 0,0 -0.10281749930419089,-0.38262216395947074 l 1.9512826120562625 -0.5063784187124397" fill="#ff1001" stroke="none" /><path d="M 79.58551787078972 104.9243191809786 l -7.571946704136318 1.8264819139925241 a28.78912145703369,28.78912145703369 0 0,0 -0.11205745215497358,-0.4827405710676307 l 7.602264722221847 -1.695872685576319" fill="#ff6109" stroke="none" /><path d="M 79.4281124754447 104.21870165774334 l -9.204788009082666 1.887636921344315 a30.396344791405554,30.396344791405554 0 0,0 -0.10069884497299221,-0.5134612410505043 l 9.235916787031325 -1.728911953225856" fill="#ff770b" stroke="none" /><path d="M 79.35854240842038 103.8639653848113 l -25.38144010494234 4.751263594009262 a46.82231607622626,46.82231607622626 0 0,0 -0.1414782158550264,-0.7934849685129397 l 25.459464763136552 -4.3136598747631085" fill="#bbff1f" stroke="none" /><path d="M 79.1416061653843 102.43462659150553 l -2.1337787262183063 0.24905821936387867 a23.14826479957535,23.14826479957535 0 0,0 -0.04278868398874903,-0.3961700719501147 l 2.137749711708107 -0.21229182552898188" fill="#ff1202" stroke="none" /><path d="M 79.10278846688536 102.07522291339032 l -8.917847025481072 0.885597605023126 a29.961711816829656,29.961711816829656 0 0,0 -0.04654823544066619,-0.5136558992858585 l 8.931769857198812 -0.7319603171887012" fill="#ff710a" stroke="none" /><path d="M 79.04373962182676 101.35467743843564 l -31.692602806405418 2.048707794824699 a52.75875117622152,52.75875117622152 0 0,0 -0.0507831849470557,-0.9067678814437784 l 31.723172342240005 -1.502868197045483" fill="#79ff26" stroke="none" /><line stroke="#e1ed5e" stroke-width="0.3" x1="15.007084014347285" x2="10.007500721073583" y1="101.09737516637583" y2="101.16192664675087" /><path d="M 14.007167355692545 101.11028546245083 a86.0,86.0 0 0,1 10.666146001902534,-42.60595125391555" fill="none" id="id22" stroke="none" /><text fill="#e1ed5e" style="font-size:6.75px; font-family:Arial;" text-anchor="middle"><textPath startOffset="22.20632615414155" xlink:href="#id22">October</textPath></text><path d="M 79.00019446554 99.90962569577889 l -10.573875104300201 -0.04550549784396988 a31.573973022079905,31.573973022079905 0 0,0 0.007016928921880387,-0.5434688779266053 l 10.571525168260607 0.2275106338310471" fill="#ff870c" stroke="none" /><path d="M 79.03285615573316 98.82574320788736 l -24.388155245159684 -1.3658492142007697 a45.426372230397675,45.426372230397675 0 0,0 0.050443626344114804,-0.780340572665936 l 24.36103102781116 1.7854488511197175" fill="#cbff1d" stroke="none" /><path d="M 79.08570108090925 98.10471618934814 l -5.157732400203673 -0.4674011189950771 a26.178867377926238,26.178867377926238 0 0,0 0.04453258995825061,-0.44843710353731514 l 5.1489226845631935 0.5561137532368226" fill="#ff3d05" stroke="none" /><path d="M 79.16333360222342 97.38593545837743 l -9.467394730416906 -1.1877322597518747 a30.541607354234458,30.541607354234458 0 0,0 0.069931556037918,-0.5210713199469197 l 9.445547175321154 1.3505219217634539" fill="#ff790b" stroke="none" /><path d="M 79.21141760316559 97.0276538004421 l -5.444745587341047 -0.7784883329301567 a26.500118052858337,26.500118052858337 0 0,0 0.06845120131096755,-0.451007891133615 l 5.430538492590777 0.8720953364558638" fill="#ff4206" stroke="none" /><path d="M 79.3925641242962 95.95851677861259 l -12.382739061837727 -2.428474481497155 a33.61862571680628,33.61862571680628 0 0,0 0.11625753666308296,-0.5669130367929612 l 12.33910222925965 2.6412631744535187" fill="#ffa20f" stroke="none" /><path d="M 79.54389044137918 95.25157060432595 l -2.828181356603866 -0.6564991965608404 a23.903377512643974,23.903377512643974 0 0,0 0.09648677981216383,-0.39999999386494123 l 2.816461776530887 0.7050844220851785" fill="#ff1d02" stroke="none" /><path d="M 80.14247586403 93.16781622104843 l -1.0529428678884591 -0.3622757365365211 a22.113522515407862,22.113522515407862 0 0,0 0.12693890531787277,-0.3588733791104561 l 1.0465508817607767 0.3803467420735882" fill="#ff0300" stroke="none" /><path d="M 80.52162464483688 92.15188598940014 l -8.994184755381589 -3.623884749398429 a30.696798445407694,30.696798445407694 0 0,0 0.2016901174996038,-0.48840861744190345 l 8.930472950995785 3.7781679372936434" fill="#ff7b0b" stroke="none" /><path d="M 80.65960295795068 91.81776055985345 l -8.218504286538895 -3.4769591216833953 a29.923735621460082,29.923735621460082 0 0,0 0.20477708595311034,-0.47265374775251234 l 8.157436490743104 3.617912014022507" fill="#ff710a" stroke="none" /><path d="M 80.95270993114464 91.15688171328213 l -22.958365104533353 -10.658919854484319 a46.31203470164686,46.31203470164686 0 0,0 0.3419191193812766,-0.7201688656638878 l 22.771487791310324 11.052531135788739" fill="#c0ff1e" stroke="none" /><path d="M 81.6062741919709 89.86733742301443 l -8.161989832606526 -4.496244523471587 a30.318491983278225,30.318491983278225 0 0,0 0.2557471039225922,-0.4549455608495717 l 8.083385087391504 4.636073594255943" fill="#ff760a" stroke="none" /><line stroke="#e1ed5e" stroke-width="0.3" x1="26.266209847984243" x2="21.928928074336255" y1="57.711370442889674" y2="55.22380399835377" /><path d="M 25.398753493254645 57.213857153982495 a86.0,86.0 0 0,1 29.58750427330803,-30.492523968695096" fill="none" id="id23" stroke="none" /><text fill="#e1ed5e" style="font-size:6.75px; font-family:Arial;" text-anchor="middle"><textPath startOffset="21.46611528233685" xlink:href="#id23">November</textPath></text><path d="M 81.96595687620814 89.24020034530311 l -54.1021293713756 -32.27939896409068 a84.0,84.0 0 0,0 0.7515368068551322,-1.2353289071717022 l 53.53847676623425 33.20589564446946" fill="#4dd2ff" stroke="none" /><path d="M 82.95767976084542 87.72973835380427 l -7.249153546014761 -5.219301683974296 a29.932599688894342,29.932599688894342 0 0,0 0.3046531265799765,-0.41554652227902167 l 7.158237806921151 5.343310649924818" fill="#ff710a" stroke="none" /><path d="M 83.6137871275137 86.86637796730984 l -6.662056585162793 -5.339667794554083 a29.5378598079442,29.5378598079442 0 0,0 0.3214021669976842,-0.3940010537191592 l 6.569155926088716 5.453553017881324" fill="#ff6c09" stroke="none" /><path d="M 84.80347519578584 85.50635884689758 l -6.717949293605577 -6.40722452012555 a30.283499812180413,30.283499812180413 0 0,0 0.36302091061265296,-0.37412495882527164 l 6.606664119289806 6.521913674500945" fill="#ff760a" stroke="none" /><path d="M 86.37877921826538 84.01681056812374 l -6.506795102862364 -7.635096764815081 a31.031604314302044,31.031604314302044 0 0,0 0.40953215484647454,-0.34297140216965155 l 6.374405411056779 7.745969324378546" fill="#ff800b" stroke="none" /><path d="M 87.80319425747018 82.90503203632743 l -5.597493950655424 -7.845413117439545 a30.637553917406457,30.637553917406457 0 0,0 0.43194407972717597,-0.30260443157652606 l 5.461618731344587 7.940602391780014" fill="#ff7a0b" stroke="none" /><path d="M 88.39885842347998 82.49532879139004 l -8.90018616942114 -13.42926741851454 a37.11082050202073,37.11082050202073 0 0,0 0.5355143958244188,-0.34831345934622243 l 8.667704747812433 13.580479802020298" fill="#ffcf13" stroke="none" /><line stroke="#e1ed5e" stroke-width="0.3" x1="56.762969772571076" x2="54.21961505331055" y1="26.818313649435495" y2="22.513508569990535" /><path d="M 56.25429882871897 25.957352633546506 a86.0,86.0 0 0,1 42.265352541879196,-11.944610805530505" fill="none" id="id24" stroke="none" /><text fill="#e1ed5e" style="font-size:6.75px; font-family:Arial;" text-anchor="middle"><textPath startOffset="22.20632615414155" xlink:href="#id24">December</textPath></text><path d="M 89.3179101791058 81.91981866633112 l -19.485523362388307 -32.980606012534956 a59.30673561738506,59.30673561738506 0 0,0 0.8833971756158774,-0.5117206634589422 l 18.914929454307106 33.31113083338394" fill="#37ff2e" stroke="none" /><path d="M 90.26544431104013 81.39251694778311 l -0.4289397292100838 -0.8199129982636063 a21.925335947651682,21.925335947651682 0 0,0 0.3359165189166668,-0.1720694880574964 l 0.4147627227046532 0.827175011633608" fill="#ff0000" stroke="none" /><path d="M 90.58718382345135 81.22770947309562 l -4.183191948766639 -8.342678016776938 a30.332704397538755,30.332704397538755 0 0,0 0.4687540060133587,-0.2300155549744575 l 4.038966675742855 8.413448731886225" fill="#ff760a" stroke="none" /><path d="M 91.23893434514133 80.91482961587045 l -6.378519565818053 -13.895014317650986 a36.28911163996292,36.28911163996292 0 0,0 0.5699427582769185,-0.25571670220621406 l 6.138394689074359 14.002751350373728" fill="#ffc412" stroke="none" /><path d="M 92.23578459929587 80.48803036053334 l -3.433776472955513 -8.629299785133044 a30.28739121863185,30.28739121863185 0 0,0 0.4860647966152334,-0.18858558961701694 l 3.284728511340603 8.687128078640612" fill="#ff760a" stroke="none" /><path d="M 93.94186890950719 79.89281104454417 l -3.161791015025523 -10.494115829971099 a31.96008163635409,31.96008163635409 0 0,0 0.528117189055853,-0.15417188941226076 l 2.9806836082462485 10.54698604830206" fill="#ff8c0c" stroke="none" /><path d="M 94.98787191387505 79.60689891045804 l -3.569910837950207 -14.525078239821168 a35.957344726382445,35.957344726382445 0 0,0 0.6023305787839994,-0.14255218747767778 l 3.3193565722036737 14.584376339439716" fill="#ffc011" stroke="none" /><path d="M 96.04723909329186 79.375362276772 l -1.725409871609387 -9.002809521221698 a30.166657978808153,30.166657978808153 0 0,0 0.5108290836802148,-0.09335074990522957 l 1.570185666826279 9.031175752477663" fill="#ff740a" stroke="none" /><path d="M 97.11714578562143 79.19881850522333 l -1.2256430442368518 -8.84360481491675 a29.92813233516982,29.92813233516982 0 0,0 0.5108949831155293,-0.06632883159259165 l 1.0732333326134649 8.86339196967348" fill="#ff710a" stroke="none" /><path d="M 97.47563105711357 79.15227682838746 l -1.2846572631920967 -10.609455115069991 a31.686949149432547,31.686949149432547 0 0,0 0.5420479618414568,-0.06090540427821309 l 1.1018425978409219 10.629996472818803" fill="#ff890c" stroke="none" /><path d="M 98.19473922651362 79.07773832637324 l -1.92948705584391 -22.36199538102163 a43.44508315243011,43.44508315243011 0 0,0 0.7456206758145228,-0.05787451478046147 l 1.5442761906670528 22.39189515799055" fill="#e2ff1b" stroke="none" /><path d="M 98.91598698831166 79.02799685794201 l -0.5155759413517694 -9.974659109633954 a30.98797491510188,30.98797491510188 0 0,0 0.532932915537081,-0.022949212397196626 l 0.3438021934253644 9.982056048555343" fill="#ff7f0b" stroke="none" /><path d="M 99.63851952072746 79.00311137660856 l -0.17670997262750018 -10.264342963606392 a31.265863962130126,31.265863962130126 0 0,0 0.5381904519000333,-0.004632375132293114 l 2.5144114883409647e-15 10.265863962130126" fill="#ff830c" stroke="none" /></svg>