<?xml version="1.0" encoding="utf-8" ?>
<svg baseProfile="full" height="200mm" version="1.1" viewBox="0,0,200,200" width="200mm" xmlns="http://www.w3.org/2000/svg" xmlns:ev="http://www.w3.org/2001/xml-events" xmlns:xlink="http://www.w3.org/1999/xlink"><defs /><rect fill="#1a1a1a" height="200" width="200" x="0" y="0" /><text alignment-baseline="middle" fill="#e1ed5e" style="dominant-baseline: central; font-size:9.0px; font-family:Arial;" text-anchor="middle" x="100.0" y="100.0">2019</text><line stroke="#e1ed5e" stroke-width="0.3" x1="100.0" x2="100.0" y1="15.0" y2="10.0" /><path d="M 100.0 14.0 a86.0,86.0 0 0,1 42.46469731375804,11.215312516191453" fill="none" id="id1" stroke="none" /><text fill="#e1ed5e" style="font-size:6.75px; font-family:Arial;" text-anchor="middle"><textPath startOffset="22.20632615414155" xlink:href="#id1">January</textPath></text><line stroke="#e1ed5e" stroke-width="0.3" x1="143.23703022742887" x2="145.7803849466894" y1="26.81831364943548" y2="22.513508569990506" /><path d="M 143.74570117128098 25.957352633546492 a86.0,86.0 0 0,1 28.547481713284135,27.462654790039103" fill="none" id="id2" stroke="none" /><text fill="#e1ed5e" style="font-size:6.75px; font-family:Arial;" text-anchor="middle"><textPath startOffset="19.985693538727396" xlink:href="#id2">February</textPath></text><line stroke="#e1ed5e" stroke-width="0.3" x1="172.23445277983987" x2="176.4835382374775" y1="55.19839476539836" y2="52.563006222186495" /><path d="M 173.08426987136738 54.67131705675599 a86.0,86.0 0 0,1 12.851231095245387,41.99856678651699" fill="none" id="id3" stroke="none" /><text fill="#e1ed5e" style="font-size:6.75px; font-family:Arial;" text-anchor="middle"><textPath startOffset="22.20632615414155" xlink:href="#id3">March</textPath></text><line stroke="#e1ed5e" stroke-width="0.3" x1="184.98032266829074" x2="189.97916517819016" y1="98.17113171792111" y2="98.06355123074" /><path d="M 185.9800911702706 98.14961562048488 a86.0,86.0 0 0,1 -9.607161424134198,41.387399972396054" fill="none" id="id4" stroke="none" /><text fill="#e1ed5e" style="font-size:6.75px; font-family:Arial;" text-anchor="middle"><textPath startOffset="21.466115282336823" xlink:href="#id4">April</textPath></text><line stroke="#e1ed5e" stroke-width="0.3" x1="174.80103733775053" x2="179.2010983576182" y1="140.37084112569926" y2="142.7455964860345" /><path d="M 175.68104954172406 140.8457921977663 a86.0,86.0 0 0,1 -30.038265399797805,32.042727171017184" fill="none" id="id5" stroke="none" /><text fill="#e1ed5e" style="font-size:6.75px; font-family:Arial;" text-anchor="middle"><textPath startOffset="22.206326154141568" xlink:href="#id5">May</textPath></text><line stroke="#e1ed5e" stroke-width="0.3" x1="143.8653032363475" x2="146.44561519142675" y1="172.8068346515853" y2="177.08958963109032" /><path d="M 144.38136562736335 173.6633856474863 a86.0,86.0 0 0,1 -40.68145358897372,12.25698825130547" fill="none" id="id6" stroke="none" /><text fill="#e1ed5e" style="font-size:6.75px; font-family:Arial;" text-anchor="middle"><textPath startOffset="21.466115282336833" xlink:href="#id6">June</textPath></text><line stroke="#e1ed5e" stroke-width="0.3" x1="102.19456741930631" x2="102.32365962044197" y1="184.97166512339345" y2="189.96999836594603" /><path d="M 102.22038585953345 185.97133177190398 a86.0,86.0 0 0,1 -42.740103519485714,-10.115201625700543" fill="none" id="id7" stroke="none" /><text fill="#e1ed5e" style="font-size:6.75px; font-family:Arial;" text-anchor="middle"><textPath startOffset="22.20632615414155" xlink:href="#id7">July</textPath></text><line stroke="#e1ed5e" stroke-width="0.3" x1="58.666819895761336" x2="56.23545636021788" y1="174.27360380694188" y2="178.64263932499728" /><path d="M 58.180547188652646 175.14741091055294 a86.0,86.0 0 0,1 -31.652253787137756,-30.449443065178592" fill="none" id="id8" stroke="none" /><text fill="#e1ed5e" style="font-size:6.75px; font-family:Arial;" text-anchor="middle"><textPath startOffset="22.20632615414155" xlink:href="#id8">August</textPath></text><line stroke="#e1ed5e" stroke-width="0.3" x1="26.63291911575756" x2="22.317208475507996" y1="142.92168965132927" y2="145.44649492493687" /><path d="M 25.769776987707644 143.4266507060508 a86.0,86.0 0 0,1 -11.730757126820373,-40.83630448921669" fill="none" id="id9" stroke="none" /><text fill="#e1ed5e" style="font-size:6.75px; font-family:Arial;" text-anchor="middle"><textPath startOffset="21.46611528233685" xlink:href="#id9">September</textPath></text><line stroke="#e1ed5e" stroke-width="0.3" x1="15.007084014347285" x2="10.007500721073583" y1="101.09737516637583" y2="101.16192664675087" /><path d="M 14.007167355692545 101.11028546245083 a86.0,86.0 0 0,1 10.666146001902534,-42.60595125391555" fill="none" id="id10" stroke="none" /><text fill="#e1ed5e" style="font-size:6.75px; font-family:Arial;" text-anchor="middle"><textPath startOffset="22.20632615414155" xlink:href="#id10">October</textPath></text><path d="M 79.21141760316559 97.0276538004421 l -5.444745587341047 -0.7784883329301567 a26.500118052858337,26.500118052858337 0 0,0 0.06845120131096755,-0.451007891133615 l 5.430538492590777 0.8720953364558638" fill="#ff4106" stroke="none" /><path d="M 79.3925641242962 95.95851677861259 l -12.382739061837727 -2.428474481497155 a33.61862571680628,33.61862571680628 0 0,0 0.11625753666308296,-0.5669130367929612 l 12.33910222925965 2.6412631744535187" fill="#ffa20f" stroke="none" /><path d="M 79.54389044137918 95.25157060432595 l -2.828181356603866 -0.6564991965608404 a23.903377512643974,23.903377512643974 0 0,0 0.09648677981216383,-0.39999999386494123 l 2.816461776530887 0.7050844220851785" fill="#ff1d02" stroke="none" /><path d="M 80.14247586403 93.16781622104843 l -1.0529428678884591 -0.3622757365365211 a22.113522515407862,22.113522515407862 0 0,0 0.12693890531787277,-0.3588733791104561 l 1.0465508817607767 0.3803467420735882" fill="#ff0300" stroke="none" /><path d="M 80.52162464483688 92.15188598940014 l -8.994184755381589 -3.623884749398429 a30.696798445407694,30.696798445407694 0 0,0 0.2016901174996038,-0.48840861744190345 l 8.930472950995785 3.7781679372936434" fill="#ff7b0b" stroke="none" /><path d="M 80.65960295795068 91.81776055985345 l -8.218504286538895 -3.4769591216833953 a29.923735621460082,29.923735621460082 0 0,0 0.20477708595311034,-0.47265374775251234 l 8.157436490743104 3.617912014022507" fill="#ff710a" stroke="none" /><path d="M 80.95270993114464 91.15688171328213 l -22.958365104533353 -10.658919854484319 a46.31203470164686,46.31203470164686 0 0,0 0.3419191193812766,-0.7201688656638878 l 22.771487791310324 11.052531135788739" fill="#c1ff1e" stroke="none" /><path d="M 81.6062741919709 89.86733742301443 l -8.161989832606526 -4.496244523471587 a30.318491983278225,30.318491983278225 0 0,0 0.2557471039225922,-0.4549455608495717 l 8.083385087391504 4.636073594255943" fill="#ff760a" stroke="none" /><line stroke="#e1ed5e" stroke-width="0.3" x1="26.266209847984243" x2="21.928928074336255" y1="57.711370442889674" y2="55.22380399835377" /><path d="M 25.398753493254645 57.213857153982495 a86.0,86.0 0 0,1 29.58750427330803,-30.492523968695096" fill="none" id="id11" stroke="none" /><text fill="#e1ed5e" style="font-size:6.75px; font-family:Arial;" text-anchor="middle"><textPath startOffset="21.46611528233685" xlink:href="#id11">November</textPath></text><path d="M 81.96595687620814 89.24020034530311 l -54.1021293713756 -32.27939896409068 a84.0,84.0 0 0,0 0.7515368068551322,-1.2353289071717022 l 53.53847676623425 33.20589564446946" fill="#4dd2ff" stroke="none" /><path d="M 82.95767976084542 87.72973835380427 l -7.249153546014761 -5.219301683974296 a29.932599688894342,29.932599688894342 0 0,0 0.3046531265799765,-0.41554652227902167 l 7.158237806921151 5.343310649924818" fill="#ff710a" stroke="none" /><path d="M 83.6137871275137 86.86637796730984 l -6.662056585162793 -5.339667794554083 a29.5378598079442,29.5378598079442 0 0,0 0.3214021669976842,-0.3940010537191592 l 6.569155926088716 5.453553017881324" fill="#ff6b09" stroke="none" /><path d="M 84.80347519578584 85.50635884689758 l -6.717949293605577 -6.40722452012555 a30.283499812180413,30.283499812180413 0 0,0 0.36302091061265296,-0.37412495882527164 l 6.606664119289806 6.521913674500945" fill="#ff760a" stroke="none" /><path d="M 86.37877921826538 84.01681056812374 l -6.506795102862364 -7.635096764815081 a31.031604314302044,31.031604314302044 0 0,0 0.40953215484647454,-0.34297140216965155 l 6.374405411056779 7.745969324378546" fill="#ff800b" stroke="none" /><path d="M 87.80319425747018 82.90503203632743 l -5.597493950655424 -7.845413117439545 a30.637553917406457,30.637553917406457 0 0,0 0.43194407972717597,-0.30260443157652606 l 5.461618731344587 7.940602391780014" fill="#ff7a0b" stroke="none" /><path d="M 88.39885842347998 82.49532879139004 l -8.90018616942114 -13.42926741851454 a37.11082050202073,37.11082050202073 0 0,0 0.5355143958244188,-0.34831345934622243 l 8.667704747812433 13.580479802020298" fill="#ffcf13" stroke="none" /><line stroke="#e1ed5e" stroke-width="0.3" x1="56.762969772571076" x2="54.21961505331055" y1="26.818313649435495" y2="22.513508569990535" /><path d="M 56.25429882871897 25.957352633546506 a86.0,86.0 0 0,1 42.265352541879196,-11.944610805530505" fill="none" id="id12" stroke="none" /><text fill="#e1ed5e" style="font-size:6.75px; font-family:Arial;" text-anchor="middle"><textPath startOffset="22.20632615414155" xlink:href="#id12">December</textPath></text><path d="M 89.3179101791058 81.91981866633112 l -19.485523362388307 -32.980606012534956 a59.30673561738506,59.30673561738506 0 0,0 0.8833971756158774,-0.5117206634589422 l 18.914929454307106 33.31113083338394" fill="#37ff2e" stroke="none" /><path d="M 90.26544431104013 81.39251694778311 l -0.4289397292100838 -0.8199129982636063 a21.925335947651682,21.925335947651682 0 0,0 0.3359165189166668,-0.1720694880574964 l 0.4147627227046532 0.827175011633608" fill="#ff0000" stroke="none" /><path d="M 90.58718382345135 81.22770947309562 l -4.183191948766639 -8.342678016776938 a30.332704397538755,30.332704397538755 0 0,0 0.4687540060133587,-0.2300155549744575 l 4.038966675742855 8.413448731886225" fill="#ff760a" stroke="none" /><path d="M 91.23893434514133 80.91482961587045 l -6.378519565818053 -13.895014317650986 a36.28911163996292,36.28911163996292 0 0,0 0.5699427582769185,-0.25571670220621406 l 6.138394689074359 14.002751350373728" fill="#ffc412" stroke="none" /><path d="M 92.23578459929587 80.48803036053334 l -3.433776472955513 -8.629299785133044 a30.28739121863185,30.28739121863185 0 0,0 0.4860647966152334,-0.18858558961701694 l 3.284728511340603 8.687128078640612" fill="#ff760a" stroke="none" /><path d="M 93.94186890950719 79.89281104454417 l -3.161791015025523 -10.494115829971099 a31.96008163635409,31.96008163635409 0 0,0 0.528117189055853,-0.15417188941226076 l 2.9806836082462485 10.54698604830206" fill="#ff8c0c" stroke="none" /><path d="M 94.98787191387505 79.60689891045804 l -3.569910837950207 -14.525078239821168 a35.957344726382445,35.957344726382445 0 0,0 0.6023305787839994,-0.14255218747767778 l 3.3193565722036737 14.584376339439716" fill="#ffc011" stroke="none" /><path d="M 96.04723909329186 79.375362276772 l -1.725409871609387 -9.002809521221698 a30.166657978808153,30.166657978808153 0 0,0 0.5108290836802148,-0.09335074990522957 l 1.570185666826279 9.031175752477663" fill="#ff740a" stroke="none" /><path d="M 97.11714578562143 79.19881850522333 l -1.2256430442368518 -8.84360481491675 a29.92813233516982,29.92813233516982 0 0,0 0.5108949831155293,-0.06632883159259165 l 1.0732333326134649 8.86339196967348" fill="#ff710a" stroke="none" /><path d="M 97.47563105711357 79.15227682838746 l -0.200350777242907 -1.6546145336432527 a22.666700239660784,22.666700239660784 0 0,0 0.3877444498881147,-0.04356760681626973 l 0.1718396238450743 1.6578180939301208" fill="#ff0b01" stroke="none" /><path d="M 98.19473922651362 79.07773832637324 l -1.92948705584391 -22.36199538102163 a43.44508315243011,43.44508315243011 0 0,0 0.7456206758145228,-0.05787451478046147 l 1.5442761906670528 22.39189515799055" fill="#e2ff1b" stroke="none" /><path d="M 98.91598698831166 79.02799685794201 l -0.5155759413517694 -9.974659109633954 a30.98797491510188,30.98797491510188 0 0,0 0.532932915537081,-0.022949212397196626 l 0.3438021934253644 9.982056048555343" fill="#ff7f0b" stroke="none" /><path d="M 99.63851952072746 79.00311137660856 l -0.17670997262750018 -10.264342963606392 a31.265863962130126,31.265863962130126 0 0,0 0.5381904519000333,-0.004632375132293114 l 2.5144114883409647e-15 10.265863962130126" fill="#ff830c" stroke="none" /></svg>