<?xml version="1.0" encoding="utf-8" ?>
<svg baseProfile="full" height="200mm" version="1.1" viewBox="0,0,200,200" width="200mm" xmlns="http://www.w3.org/2000/svg" xmlns:ev="http://www.w3.org/2001/xml-events" xmlns:xlink="http://www.w3.org/1999/xlink"><defs /><rect fill="#1a1a1a" height="200" width="200" x="0" y="0" /><text alignment-baseline="middle" fill="#e1ed5e" style="dominant-baseline: central; font-size:9.0px; font-family:Arial;" text-anchor="middle" x="100.0" y="100.0">2020</text><line stroke="#e1ed5e" stroke-width="0.3" x1="100.0" x2="100.0" y1="15.0" y2="10.0" /><path d="M 100.0 14.0 a86.0,86.0 0 0,1 42.35913384403234,11.155469271406648" fill="none" id="id25" stroke="none" /><text fill="#e1ed5e" style="font-size:6.75px; font-family:Arial;" text-anchor="middle"><textPath startOffset="22.145653131862478" xlink:href="#id25">January</textPath></text><path d="M 100.36049292484886 79.00309439819443 l 0.796187780513469 -46.37394666139868 a67.38078097591813,67.38078097591813 0 0,0 1.156339826249351,0.02978321210443695 l -1.5921409208335613 46.3534457319442" fill="#38ff83" stroke="none" /><path d="M 101.44090949804482 79.04949213459386 l 3.7194157990257697 -54.079489418274115 a75.20724333174732,75.20724333174732 0 0,0 1.2872292890911219,0.09963968798264627 l -4.647214082892125 54.00767196329642" fill="#42ffd7" stroke="none" /><path d="M 102.15924093988457 79.11130261209362 l 2.188954134948386 -21.17614559651115 a42.28897983768941,42.28897983768941 0 0,0 0.7214582492272327,0.08084090164381354 l -2.5521482857764153 21.135448934360365" fill="#f2ff19" stroke="none" /><path d="M 102.51750503828377 79.15144685158666 l 3.2689070000228098 -27.07123929875286 a48.26788862646207,48.26788862646207 0 0,0 0.8217543178316857,0.1063925485379019 l -3.7331391397452873 27.01113515401456" fill="#adff20" stroke="none" /><path d="M 102.87502721639298 79.19773525538626 l 3.2766259516396965 -23.70803313667279 a44.93338907962125,44.93338907962125 0 0,0 0.7631719906982307,0.11216000136178399 l -3.6831230479456094 23.64829206201212" fill="#d3ff1c" stroke="none" /><path d="M 103.94208987418118 79.37332000966035 l 11.659804728589942 -61.009025304485135 a83.11322093493587,83.11322093493587 0 0,0 1.3990864618734227,0.2798564760763048 l -12.705387675994322 60.79987943174597" fill="#4cdaff" stroke="none" /><path d="M 104.64783097203109 79.52079915486377 l 1.753887881691813 -7.727953620766261 a28.924480416169867,28.924480416169867 0 0,0 0.4832700070387808,0.11405040578514458 l -1.886290042470479 7.696707071334888" fill="#ff5f08" stroke="none" /><path d="M 106.04205211174951 79.88797359093562 l 4.59694960219928 -15.30175014889096 a36.97734343576067,36.97734343576067 0 0,0 0.6063568849346156,0.1878509129320211 l -4.858947120005526 15.220582648152293" fill="#ffca12" stroke="none" /><path d="M 109.3889696526874 81.21577127319529 l 3.068893254006983 -6.13984227810503 a27.86409272988758,27.86409272988758 0 0,0 0.42601912701026073,0.21752840175789842 l -3.1738396027308227 6.086255924674298" fill="#ff5007" stroke="none" /><path d="M 109.71004243097381 81.37971332152246 l 6.581293714816697 -12.620498474264577 a35.23342575417458,35.23342575417458 0 0,0 0.5338890539586775,0.28426584981244024 l -6.796971584561934 12.505662156729564" fill="#ffb310" stroke="none" /><path d="M 110.02825361518725 81.54914285379988 l 17.46775268606174 -32.13869750836576 a57.57893193404713,57.57893193404713 0 0,0 0.8643853777129843,0.4794599980847689 l -18.016882251930824 31.834104594847847" fill="#49ff2c" stroke="none" /><line stroke="#e1ed5e" stroke-width="0.3" x1="143.13028292997686" x2="145.6673583964461" y1="26.7553504044142" y2="22.446841604673864" /><path d="M 143.63769802327073 25.89364864446614 a86.0,86.0 0 0,1 29.32050498858742,28.57503671076993" fill="none" id="id26" stroke="none" /><text fill="#e1ed5e" style="font-size:6.75px; font-family:Arial;" text-anchor="middle"><textPath startOffset="20.669276256404974" xlink:href="#id26">February</textPath></text><path d="M 112.45986205192187 83.09580414077388 l 14.843181719498052 -20.137626718088566 a46.01687537233848,46.01687537233848 0 0,0 0.6318489749180747,0.4741512502541523 l -15.186683683326892 19.8798564405704" fill="#c6ff1e" stroke="none" /><path d="M 113.86319453409587 84.22622945171908 l 0.8481968345063675 -0.9650922963228991 a22.284850579051287,22.284850579051287 0 0,0 0.28517708202887765,0.25500710523937226 l -0.8646389433586207 0.9503896612001399" fill="#ff0000" stroke="none" /><path d="M 114.39649973595853 84.71141617570332 l 18.127014187803468 -19.25026089517006 a47.44165630018176,47.44165630018176 0 0,0 0.5881127833837416,0.5633987428322468 l -18.454799457052523 18.936250022032233" fill="#b6ff1f" stroke="none" /><path d="M 114.91283532996326 85.21462403516908 l 44.73850598988975 -44.35612789449276 a84.0,84.0 0 0,0 1.0064527953967528,1.032709231729032 l -45.49334558643732 43.581595970695986" fill="#4dd2ff" stroke="none" /><line stroke="#e1ed5e" stroke-width="0.3" x1="172.87174338648825" x2="177.1583165268699" y1="56.24261187166439" y2="53.66864786411523" /><path d="M 173.72905801456457 55.72781907015455 a86.0,86.0 0 0,1 12.242430191666344,42.057860355516425" fill="none" id="id27" stroke="none" /><text fill="#e1ed5e" style="font-size:6.75px; font-family:Arial;" text-anchor="middle"><textPath startOffset="22.145653131862474" xlink:href="#id27">March</textPath></text><path d="M 120.16314734710363 94.1308016681162 l 4.121184816308992 -1.1996168372364797 a25.29223075409012,25.29223075409012 0 0,0 0.1177672600920268,0.4179144599278948 l -4.1411705684756015 1.1286944534055718" fill="#ff2c04" stroke="none" /><path d="M 120.26092885502905 94.47779374421319 l 9.252357932337226 -2.521771297866694 a30.589862240242446,30.589862240242446 0 0,0 0.1337367206851636,0.5078201116904236 l -9.294284133827121 2.3625706818034717" fill="#ff760a" stroke="none" /><path d="M 120.9064616781168 98.02013634271609 l 5.6530432496543375 -0.5353490731891727 a26.67833572560015,26.67833572560015 0 0,0 0.03926336713008282,0.45629984208007235 l -5.661400239482161 0.43822818373343825" fill="#ff3f05" stroke="none" /><path d="M 120.93736805541906 98.37931529534042 l 2.6717053928395584 -0.20680689445161088 a23.679697519818365,23.679697519818365 0 0,0 0.02789247225951026,0.40555042509709427 l -2.674861826264135 0.16091304520018246" fill="#ff1402" stroke="none" /><path d="M 120.96210409425399 98.7389718711861 l 1.4217085606169697 -0.08552645659292245 a22.424278766993638,22.424278766993638 0 0,0 0.01981709388086325,0.38444632710957033 l -1.4229672439544057 0.06110833610662147" fill="#ff0200" stroke="none" /><path d="M 120.98066250479742 99.09900007780936 l 17.400188047171163 -0.7472389431467635 a38.41622548415911,38.41622548415911 0 0,0 0.022638705465053734,0.6591012086207018 l -17.410451439633064 0.4484314699619419" fill="#ffdc14" stroke="none" /><path d="M 120.99303781780057 99.45929381324524 l 5.618546047392316 -0.14471381582590917 a26.620409395689848,26.620409395689848 0 0,0 0.00784486782936858,0.45692422213535466 l -5.620202346820351 0.048242677721488145" fill="#ff3f05" stroke="none" /><line stroke="#e1ed5e" stroke-width="0.3" x1="184.99686870605535" x2="189.99668451229388" y1="99.2704041080226" y2="99.22748670261217" /><path d="M 185.99683186730306 99.26182062694052 a86.0,86.0 0 0,1 -10.086455211305974,41.156179273409016" fill="none" id="id28" stroke="none" /><text fill="#e1ed5e" style="font-size:6.75px; font-family:Arial;" text-anchor="middle"><textPath startOffset="21.40746469413373" xlink:href="#id28">April</textPath></text><path d="M 120.99922638620191 100.18025310272382 l 8.245857466808765 0.07078076904715615 a29.246161245100218,29.246161245100218 0 0,0 -0.008618660444841773,0.5019937627077241 l -8.243427374765256 -0.21232144772395134" fill="#ff6309" stroke="none" /><path d="M 120.9064616781168 101.97986365728391 l 12.012899523024211 1.1376340745949352 a33.06664685146436,33.06664685146436 0 0,0 -0.05836673749702064,0.5646452392477365 l -11.991600393045525 -1.3436838361256032" fill="#ff970d" stroke="none" /><path d="M 120.51834098615036 104.47187691870673 l 6.2135488322599 1.3542140480556173 a27.359409153280637,27.359409153280637 0 0,0 -0.10395160403007722,0.4580299477146697 l -6.189386366672159 -1.4606783297093038" fill="#ff4906" stroke="none" /><path d="M 120.35273937422433 105.17358676015961 l 10.030802455444162 2.54979075902603 a31.34980341914566,31.34980341914566 0 0,0 -0.13705912993244784,0.5204358407616346 l -9.985553844706985 -2.721607104160468" fill="#ff800b" stroke="none" /><path d="M 119.94978838288452 106.5578916946017 l 1.2154985969966792 0.3995585317026803 a22.279485779349383,22.279485779349383 0 0,0 -0.12255263844695397,0.3623050993916461 l -1.2084605369773602 -0.4203653055684869" fill="#ff0000" stroke="none" /><path d="M 119.31412917781788 108.2440532568976 l 2.542324581715669 1.0851671879701013 a23.764236260641027,23.764236260641027 0 0,0 -0.16336907313240026,0.3738204104618084 l -2.5233216265663034 -1.1286496682077543" fill="#ff1602" stroke="none" /><path d="M 119.16976305983485 108.57439118712176 l 9.959131332427338 4.454592769958257 a31.909981376826465,31.909981376826465 0 0,0 -0.22795204441475317,0.4981163558403718 l -9.881194823157529 -4.624898108013317" fill="#ff870c" stroke="none" /><line stroke="#e1ed5e" stroke-width="0.3" x1="174.33088141563837" x2="178.70328620479359" y1="141.23008692659167" y2="143.65538615756765" /><path d="M 175.20536237346943 141.71514677278685 a86.0,86.0 0 0,1 -30.301960400862466,31.631185727798858" fill="none" id="id29" stroke="none" /><text fill="#e1ed5e" style="font-size:6.75px; font-family:Arial;" text-anchor="middle"><textPath startOffset="22.145653131862474" xlink:href="#id29">May</textPath></text><path d="M 117.81537515405839 111.11811171558189 l 5.062376373463338 3.159297268778876 a26.967312106728915,26.967312106728915 0 0,0 -0.24846179985976172,0.3906232177875824 l -5.007396881977686 -3.2457341612451303" fill="#ff4306" stroke="none" /><path d="M 117.21940702142032 112.02048342749411 l 7.243085979651586 5.056236540202032 a29.833335862464395,29.833335862464395 0 0,0 -0.2967492105787365,0.41741492760076665 l -7.15522167054289 -5.179828694512302" fill="#ff6b09" stroke="none" /><path d="M 116.57777611688842 112.89097897827486 l 8.852412294936606 6.883689343879789 a32.2138477973704,32.2138477973704 0 0,0 -0.34320567383214984,0.43362915724212064 l -8.732940190462894 -7.034638445036593" fill="#ff8b0c" stroke="none" /><path d="M 115.41159269507618 114.26474011684316 l 1.1079825812795547 1.0255321360128749 a22.50974884083878,22.50974884083878 0 0,0 -0.264912052860728,0.2813274198944092 l -1.0902146946825666 -1.0444010158517811" fill="#ff0300" stroke="none" /><path d="M 115.16444852881244 114.52719865689866 l 1.5003128815859776 1.4372658021089546 a23.077660157139448,23.077660157139448 0 0,0 -0.2765068520996392,0.2837203891783762 l -1.4754192283355312 -1.462808883355068" fill="#ff0c01" stroke="none" /><path d="M 114.91283532996324 114.78537596483092 l 6.0739989713647216 6.022084762190223 a29.55330160739953,29.55330160739953 0 0,0 -0.36028019039668463,0.3572008910333058 l -5.969726860838072 -6.12546566345219" fill="#ff6709" stroke="none" /><path d="M 114.65682725009322 115.03919595460226 l 5.357163617389525 5.496921811797609 a28.675633617395917,28.675633617395917 0 0,0 -0.3554788769454175,0.34054072285619325 l -5.262012254578796 -5.588074664959382" fill="#ff5b08" stroke="none" /><path d="M 113.59037401385872 116.0094264158162 l 2.9333530303581683 3.4554824939506417 a25.532650357871297,25.532650357871297 0 0,0 -0.3365758540918691,0.28078354821850493 l -2.8736028421044044 -3.505328226081017" fill="#ff2f04" stroke="none" /><path d="M 113.31354834802062 116.24036423190432 l 2.9079199157358393 3.5471894760332465 a25.58678007050852,25.58678007050852 0 0,0 -0.342069942565945,0.27554733187040187 l -2.846599202814642 -3.5965851016970523" fill="#ff3004" stroke="none" /><path d="M 112.7482090630111 116.68781488649013 l 4.846129395037614 6.343738940947712 a28.982981514718922,28.982981514718922 0 0,0 -0.39795981391541485,0.2986364634735217 l -4.736516592211433 -6.425994431685248" fill="#ff5f08" stroke="none" /><line stroke="#e1ed5e" stroke-width="0.3" x1="143.1302829299769" x2="145.66735839644613" y1="173.24464959558577" y2="177.55315839532614" /><path d="M 143.63769802327073 174.10635135553383 a86.0,86.0 0 0,1 -40.68552437913181,11.842963189579606" fill="none" id="id30" stroke="none" /><text fill="#e1ed5e" style="font-size:6.75px; font-family:Arial;" text-anchor="middle"><textPath startOffset="21.407464694133747" xlink:href="#id30">June</textPath></text><line stroke="#e1ed5e" stroke-width="0.3" x1="101.45913802915013" x2="101.54496967792366" y1="184.9874750549273" y2="189.98673829345242" /><path d="M 101.47630435890484 185.9873277026323 a86.0,86.0 0 0,1 -42.54439059252881,-10.42667462771756" fill="none" id="id31" stroke="none" /><text fill="#e1ed5e" style="font-size:6.75px; font-family:Arial;" text-anchor="middle"><textPath startOffset="22.145653131862474" xlink:href="#id31">July</textPath></text><line stroke="#e1ed5e" stroke-width="0.3" x1="58.13341422392154" x2="55.67067388415222" y1="173.97424548756322" y2="178.32567169271397" /><path d="M 57.64086615596768 174.84453072859336 a86.0,86.0 0 0,1 -31.369924170532247,-30.572349798747897" fill="none" id="id32" stroke="none" /><text fill="#e1ed5e" style="font-size:6.75px; font-family:Arial;" text-anchor="middle"><textPath startOffset="22.145653131862474" xlink:href="#id32">August</textPath></text><line stroke="#e1ed5e" stroke-width="0.3" x1="26.387840678322732" x2="22.057713659400548" y1="142.50000000000003" y2="145.00000000000006" /><path d="M 25.521815274538298 143.00000000000003 a86.0,86.0 0 0,1 -11.493303480769221,-40.785679425670985" fill="none" id="id33" stroke="none" /><text fill="#e1ed5e" style="font-size:6.75px; font-family:Arial;" text-anchor="middle"><textPath startOffset="21.40746469413373" xlink:href="#id33">September</textPath></text><line stroke="#e1ed5e" stroke-width="0.3" x1="15.003131293944662" x2="10.003315487706104" y1="100.72959589197737" y2="100.7725132973878" /><path d="M 14.003168132696942 100.73817937305945 a86.0,86.0 0 0,1 10.791469493833604,-42.45332614584628" fill="none" id="id34" stroke="none" /><text fill="#e1ed5e" style="font-size:6.75px; font-family:Arial;" text-anchor="middle"><textPath startOffset="22.145653131862435" xlink:href="#id34">October</textPath></text><line stroke="#e1ed5e" stroke-width="0.3" x1="26.387840678322718" x2="22.05771365940052" y1="57.49999999999999" y2="54.99999999999999" /><path d="M 25.521815274538284 56.99999999999999 a86.0,86.0 0 0,1 29.574782752854787,-30.34633250058573" fill="none" id="id35" stroke="none" /><text fill="#e1ed5e" style="font-size:6.75px; font-family:Arial;" text-anchor="middle"><textPath startOffset="21.40746469413373" xlink:href="#id35">November</textPath></text><line stroke="#e1ed5e" stroke-width="0.3" x1="56.869717070023135" x2="54.33264160355391" y1="26.7553504044142" y2="22.446841604673864" /><path d="M 56.362301976729285 25.89364864446614 a86.0,86.0 0 0,1 42.16139366436587,-11.88097634709845" fill="none" id="id36" stroke="none" /><text fill="#e1ed5e" style="font-size:6.75px; font-family:Arial;" text-anchor="middle"><textPath startOffset="22.145653131862474" xlink:href="#id36">December</textPath></text></svg>