<?xml version="1.0" encoding="utf-8" ?>
<svg baseProfile="full" height="200mm" version="1.1" viewBox="0,0,200,200" width="200mm" xmlns="http://www.w3.org/2000/svg" xmlns:ev="http://www.w3.org/2001/xml-events" xmlns:xlink="http://www.w3.org/1999/xlink"><defs /><rect fill="#1a1a1a" height="200" width="200" x="0" y="0" /><text alignment-baseline="middle" fill="#e1ed5e" style="dominant-baseline: central; font-size:9.0px; font-family:Arial;" text-anchor="middle" x="100.0" y="100.0">2020</text><line stroke="#e1ed5e" stroke-width="0.3" x1="100.0" x2="100.0" y1="15.0" y2="10.0" /><path d="M 100.0 14.0 a86.0,86.0 0 0,1 42.35913384403234,11.155469271406648" fill="none" id="id25" stroke="none" /><text fill="#e1ed5e" style="font-size:6.75px; font-family:Arial;" text-anchor="middle"><textPath startOffset="22.145653131862478" xlink:href="#id25">January</textPath></text><path d="M 100.36049292484886 79.00309439819443 l 0.7931286258418399 -46.195766238333654 a67.2025742936895,67.2025742936895 0 0,0 1.153281573124645,0.029704442352315192 l -1.5860235130372262 46.17534407863129" fill="#38ff7d" stroke="none" /><path d="M 101.44090949804482 79.04949213459386 l 3.6672468500531292 -53.32096434972239 a74.44692637227692,74.44692637227692 0 0,0 1.2742158848515082,0.09863236819197971 l -4.582031729679871 53.25015421453535" fill="#41ffcd" stroke="none" /><path d="M 102.15924093988457 79.11130261209362 l 2.160020678509297 -20.896240651778758 a42.007583457138495,42.007583457138495 0 0,0 0.716657572057191,0.08030297575365604 l -2.5184141521672845 20.856081915518132" fill="#fffe18" stroke="none" /><path d="M 102.51750503828377 79.15144685158666 l 3.2408187082379136 -26.838627949333368 a48.03358755515818,48.03358755515818 0 0,0 0.8177653735771196,0.10587609984270219 l -3.701061903705825 26.77904025329027" fill="#b8ff1f" stroke="none" /><path d="M 102.87502721639298 79.19773525538626 l 3.2466824285064044 -23.491376719629653 a44.71467324200631,44.71467324200631 0 0,0 0.759457207446648,0.11161405614938823 l -3.6494647415607346 23.432181590181383" fill="#dfff1b" stroke="none" /><path d="M 103.94208987418118 79.37332000966035 l 11.82626962254352 -61.88003997101897 a84.0,84.0 0 0,0 1.4140140578761722,0.2828424133485634 l -12.88678016595065 61.66790816100754" fill="#4dd2ff" stroke="none" /><path d="M 104.64783097203109 79.52079915486377 l 1.7656918862475652 -7.779964242823911 a28.977813701558787,28.977813701558787 0 0,0 0.48416109918060873,0.11426070110429785 l -1.898985139168059 7.748507398073386" fill="#ff5007" stroke="none" /><path d="M 106.04205211174951 79.88797359093562 l 4.565118236091339 -15.195793883708381 a36.86670905593352,36.86670905593352 0 0,0 0.6045426951717623,0.18728887230602795 l -4.825301564134732 15.115188423595706" fill="#ffbc11" stroke="none" /><path d="M 109.3889696526874 81.21577127319529 l 3.0271312148808853 -6.056290224571888 a27.770684948832816,27.770684948832816 0 0,0 0.4245909986399358,0.216799189236193 l -3.1306494352344 6.003433083662861" fill="#ff3f05" stroke="none" /><path d="M 109.71004243097381 81.37971332152246 l 6.501799352174549 -12.468057552173654 a35.06150254916778,35.06150254916778 0 0,0 0.5312839164987258,0.28287876084996694 l -6.714872084459834 12.354608323601115" fill="#ffa40f" stroke="none" /><path d="M 110.02825361518725 81.54914285379988 l 17.312786407680008 -31.853577010359068 a57.25441961406671,57.25441961406671 0 0,0 0.859513739861138,0.47675778268948316 l -17.857044335697246 31.551686312236438" fill="#52ff2b" stroke="none" /><line stroke="#e1ed5e" stroke-width="0.3" x1="143.13028292997686" x2="145.6673583964461" y1="26.7553504044142" y2="22.446841604673864" /><path d="M 143.63769802327073 25.89364864446614 a86.0,86.0 0 0,1 29.32050498858742,28.57503671076993" fill="none" id="id26" stroke="none" /><text fill="#e1ed5e" style="font-size:6.75px; font-family:Arial;" text-anchor="middle"><textPath startOffset="20.669276256404974" xlink:href="#id26">February</textPath></text><path d="M 112.45986205192187 83.09580414077388 l 14.693530636374472 -19.934596282508735 a45.76465165328772,45.76465165328772 0 0,0 0.6283857389412129,0.47155237341247175 l -15.033569364226452 19.679424881832247" fill="#d2ff1c" stroke="none" /><path d="M 113.86319453409587 84.22622945171908 l 20.71065746241742 -23.564926389278295 a52.372553103910604,52.372553103910604 0 0,0 0.6702065073128931,0.5993027915375913 l -21.11212899655369 23.205928067857315" fill="#86ff25" stroke="none" /><path d="M 114.39649973595853 84.71141617570332 l 18.273461079538354 -19.405782419232203 a47.655276609481746,47.655276609481746 0 0,0 0.5907609378641582,0.565935614920808 l -18.603894503267824 19.089234674005816" fill="#bcff1f" stroke="none" /><path d="M 114.91283532996326 85.21462403516908 l 44.57778942704351 -44.19678496922873 a83.77368168124342,83.77368168124342 0 0,0 1.0037411441519664,1.029926838668445 l -45.329917372346294 43.42503543849254" fill="#4dd4ff" stroke="none" /><line stroke="#e1ed5e" stroke-width="0.3" x1="172.87174338648825" x2="177.1583165268699" y1="56.24261187166439" y2="53.66864786411523" /><path d="M 173.72905801456457 55.72781907015455 a86.0,86.0 0 0,1 12.242430191666344,42.057860355516425" fill="none" id="id27" stroke="none" /><text fill="#e1ed5e" style="font-size:6.75px; font-family:Arial;" text-anchor="middle"><textPath startOffset="22.145653131862474" xlink:href="#id27">March</textPath></text><path d="M 119.83427380445688 93.10060997987247 l 2.352983503014425 -0.8184898049846683 a23.49127616420217,23.49127616420217 0 0,0 0.12921832680166498,0.38201102259714664 l -2.3666872513884547 0.7779771079133599" fill="#ff0000" stroke="none" /><path d="M 120.16314734710363 94.1308016681162 l 4.36190345606838 -1.2696865249993914 a25.542940196813767,25.542940196813767 0 0,0 0.11893462901396296,0.42205704040540887 l -4.383056577156925 1.1946215606909694" fill="#ff1e03" stroke="none" /><path d="M 120.26092885502905 94.47779374421319 l 9.535401762649434 -2.598916152458292 a30.883230845358543,30.883230845358543 0 0,0 0.13501930753998745,0.5126903028879679 l -9.578610550994151 2.434845345197526" fill="#ff6b09" stroke="none" /><path d="M 120.9064616781168 98.02013634271609 l 5.663504697563648 -0.5363397831829108 a26.68884397943468,26.68884397943468 0 0,0 0.03927883246616844,0.4564795727279865 l -5.671877152727557 0.4390391630792622" fill="#ff2f04" stroke="none" /><path d="M 120.93736805541906 98.37931529534042 l 2.749253954227674 -0.21280964355443063 a23.757478059609227,23.757478059609227 0 0,0 0.02798409047155163,0.4068825337927423 l -2.752502005864292 0.16558368560735418" fill="#ff0400" stroke="none" /><path d="M 120.96210409425399 98.7389718711861 l 2.77722640651897 -0.16707104415463667 a23.782247157759567,23.782247157759567 0 0,0 0.02101717649518856,0.40772760922283435 l -2.7796851724707308 0.11937164155507164" fill="#ff0400" stroke="none" /><path d="M 120.98066250479742 99.09900007780936 l 16.99104481559492 -0.7296685723479037 a38.00670515270454,38.00670515270454 0 0,0 0.022397374880153503,0.6520751319560966 l -17.00106687747192 0.4378871758276872" fill="#ffcb12" stroke="none" /><path d="M 120.99303781780057 99.45929381324524 l 5.789259650172373 -0.14911079267068497 a26.791179614344976,26.791179614344976 0 0,0 0.007895192742657056,0.4598553960389203 l -5.790966274513696 0.04970848066269831" fill="#ff3104" stroke="none" /><line stroke="#e1ed5e" stroke-width="0.3" x1="184.99686870605535" x2="189.99668451229388" y1="99.2704041080226" y2="99.22748670261217" /><path d="M 185.99683186730306 99.26182062694052 a86.0,86.0 0 0,1 -10.086455211305974,41.156179273409016" fill="none" id="id28" stroke="none" /><text fill="#e1ed5e" style="font-size:6.75px; font-family:Arial;" text-anchor="middle"><textPath startOffset="21.40746469413373" xlink:href="#id28">April</textPath></text><path d="M 120.99922638620191 100.18025310272382 l 8.15347991307569 0.06998781885098299 a29.153780288167955,29.153780288167955 0 0,0 -0.00859143635574864,0.5004080960014402 l -8.151077045121275 -0.20994283082149423" fill="#ff5307" stroke="none" /><path d="M 120.9064616781168 101.97986365728391 l 12.101945989852014 1.1460668675847907 a33.156091724163275,33.156091724163275 0 0,0 -0.05852461880348401,0.566172597669394 l -12.080488978566864 -1.353643987537116" fill="#ff8a0c" stroke="none" /><path d="M 120.51834098615036 104.47187691870673 l 12.137812469567342 2.6453797343014434 a33.422742269122274,33.422742269122274 0 0,0 -0.1269891338111195,0.5595375546394545 l -12.090612474198558 -2.8533516228799147" fill="#ff8e0d" stroke="none" /><path d="M 120.35273937422433 105.17358676015961 l 10.006949117202845 2.543727333722841 a31.325191493750395,31.325191493750395 0 0,0 -0.13695152833011764,0.5200272599512675 l -9.961808108067999 -2.7151350980469116" fill="#ff710a" stroke="none" /><path d="M 119.94978838288452 106.5578916946017 l 2.3744070298071454 0.7805147524138666 a23.499402332945472,23.499402332945472 0 0,0 -0.12926302637102757,0.3821431689313755 l -2.3606585818637527 -0.8211595958194026" fill="#ff0000" stroke="none" /><path d="M 119.31412917781788 108.2440532568976 l 2.7036423292446363 1.1540241418440018 a23.93963493727404,23.93963493727404 0 0,0 -0.1645748648488226,0.37657949788099915 l -2.683433582378848 -1.2002657095008458" fill="#ff0701" stroke="none" /><path d="M 119.16976305983485 108.57439118712176 l 10.296799091709389 4.605627263724614 a32.27988803257332,32.27988803257332 0 0,0 -0.23059450845835036,0.503890616664464 l -10.21622011839598 -4.781706862603767" fill="#ff7e0b" stroke="none" /><line stroke="#e1ed5e" stroke-width="0.3" x1="174.33088141563837" x2="178.70328620479359" y1="141.23008692659167" y2="143.65538615756765" /><path d="M 175.20536237346943 141.71514677278685 a86.0,86.0 0 0,1 -30.301960400862466,31.631185727798858" fill="none" id="id29" stroke="none" /><text fill="#e1ed5e" style="font-size:6.75px; font-family:Arial;" text-anchor="middle"><textPath startOffset="22.145653131862474" xlink:href="#id29">May</textPath></text><path d="M 117.81537515405839 111.11811171558189 l 5.626078693155999 3.511089207510402 a27.63178021987158,27.63178021987158 0 0,0 -0.2545838391155632,0.400248080341395 l -5.564977162414546 -3.607150962530469" fill="#ff3d05" stroke="none" /><path d="M 117.21940702142032 112.02048342749411 l 7.16810754280453 5.00389576816393 a29.741895595570796,29.741895595570796 0 0,0 -0.2958396633815716,0.4161355355622381 l -7.081152780892998 -5.1262085304356715" fill="#ff5b08" stroke="none" /><path d="M 116.57777611688842 112.89097897827486 l 8.859953386297942 6.889553342134247 a32.22340052129859,32.22340052129859 0 0,0 -0.3433074483569856,0.43375774602953915 l -8.740379507299394 -7.04063103207847" fill="#ff7e0b" stroke="none" /><path d="M 115.41159269507618 114.26474011684316 l 2.1643806388541895 2.0033184069966987 a23.949208061439318,23.949208061439318 0 0,0 -0.28185271709625054,0.2993178182519449 l -2.129672088021679 -2.040177685193141" fill="#ff0701" stroke="none" /><path d="M 115.16444852881244 114.52719865689866 l 2.93077545441025 2.807616588502104 a25.058590355308823,25.058590355308823 0 0,0 -0.300241527521466,0.3080742570719521 l -2.8821471257379767 -2.8575135376417933" fill="#ff1702" stroke="none" /><path d="M 114.91283532996324 114.78537596483092 l 6.119020809273501 6.066721800377825 a29.616700590568392,29.616700590568392 0 0,0 -0.3610530785846262,0.35796717337899314 l -6.013975810558909 -6.170868983985479" fill="#ff5908" stroke="none" /><path d="M 114.65682725009322 115.03919595460226 l 5.401761911727457 5.542683590683617 a28.739533134332,28.739533134332 0 0,0 -0.3562710103929593,0.34129956878015477 l -5.305818415469186 -5.634595289769352" fill="#ff4d07" stroke="none" /><path d="M 113.59037401385872 116.0094264158162 l 2.8802649285612976 3.392944843522061 a25.450618021116075,25.450618021116075 0 0,0 -0.33549448950889194,0.2798814354233212 l -2.8215961048905105 -3.4418884628572526" fill="#ff1d02" stroke="none" /><path d="M 113.31354834802062 116.24036423190432 l 2.9995563340033873 3.658971006446464 a25.731321911144462,25.731321911144462 0 0,0 -0.344002324014039,0.2771039215788809 l -2.936303239634096 -3.7099232218187486" fill="#ff2103" stroke="none" /><path d="M 112.7482090630111 116.68781488649013 l 4.836827737088263 6.33156277210478 a28.9676589846309,28.9676589846309 0 0,0 -0.3977494231652622,0.2984785823323206 l -4.727425325012234 -6.413660381701115" fill="#ff5007" stroke="none" /><line stroke="#e1ed5e" stroke-width="0.3" x1="143.1302829299769" x2="145.66735839644613" y1="173.24464959558577" y2="177.55315839532614" /><path d="M 143.63769802327073 174.10635135553383 a86.0,86.0 0 0,1 -40.68552437913181,11.842963189579606" fill="none" id="id30" stroke="none" /><text fill="#e1ed5e" style="font-size:6.75px; font-family:Arial;" text-anchor="middle"><textPath startOffset="21.407464694133747" xlink:href="#id30">June</textPath></text><line stroke="#e1ed5e" stroke-width="0.3" x1="101.45913802915013" x2="101.54496967792366" y1="184.9874750549273" y2="189.98673829345242" /><path d="M 101.47630435890484 185.9873277026323 a86.0,86.0 0 0,1 -42.54439059252881,-10.42667462771756" fill="none" id="id31" stroke="none" /><text fill="#e1ed5e" style="font-size:6.75px; font-family:Arial;" text-anchor="middle"><textPath startOffset="22.145653131862474" xlink:href="#id31">July</textPath></text><line stroke="#e1ed5e" stroke-width="0.3" x1="58.13341422392154" x2="55.67067388415222" y1="173.97424548756322" y2="178.32567169271397" /><path d="M 57.64086615596768 174.84453072859336 a86.0,86.0 0 0,1 -31.369924170532247,-30.572349798747897" fill="none" id="id32" stroke="none" /><text fill="#e1ed5e" style="font-size:6.75px; font-family:Arial;" text-anchor="middle"><textPath startOffset="22.145653131862474" xlink:href="#id32">August</textPath></text><line stroke="#e1ed5e" stroke-width="0.3" x1="26.387840678322732" x2="22.057713659400548" y1="142.50000000000003" y2="145.00000000000006" /><path d="M 25.521815274538298 143.00000000000003 a86.0,86.0 0 0,1 -11.493303480769221,-40.785679425670985" fill="none" id="id33" stroke="none" /><text fill="#e1ed5e" style="font-size:6.75px; font-family:Arial;" text-anchor="middle"><textPath startOffset="21.40746469413373" xlink:href="#id33">September</textPath></text><line stroke="#e1ed5e" stroke-width="0.3" x1="15.003131293944662" x2="10.003315487706104" y1="100.72959589197737" y2="100.7725132973878" /><path d="M 14.003168132696942 100.73817937305945 a86.0,86.0 0 0,1 10.791469493833604,-42.45332614584628" fill="none" id="id34" stroke="none" /><text fill="#e1ed5e" style="font-size:6.75px; font-family:Arial;" text-anchor="middle"><textPath startOffset="22.145653131862435" xlink:href="#id34">October</textPath></text><line stroke="#e1ed5e" stroke-width="0.3" x1="26.387840678322718" x2="22.05771365940052" y1="57.49999999999999" y2="54.99999999999999" /><path d="M 25.521815274538284 56.99999999999999 a86.0,86.0 0 0,1 29.574782752854787,-30.34633250058573" fill="none" id="id35" stroke="none" /><text fill="#e1ed5e" style="font-size:6.75px; font-family:Arial;" text-anchor="middle"><textPath startOffset="21.40746469413373" xlink:href="#id35">November</textPath></text><line stroke="#e1ed5e" stroke-width="0.3" x1="56.869717070023135" x2="54.33264160355391" y1="26.7553504044142" y2="22.446841604673864" /><path d="M 56.362301976729285 25.89364864446614 a86.0,86.0 0 0,1 42.16139366436587,-11.88097634709845" fill="none" id="id36" stroke="none" /><text fill="#e1ed5e" style="font-size:6.75px; font-family:Arial;" text-anchor="middle"><textPath startOffset="22.145653131862474" xlink:href="#id36">December</textPath></text></svg>