<?xml version="1.0" encoding="utf-8" ?>
<svg baseProfile="full" height="200mm" version="1.1" viewBox="0,0,200,200" width="200mm" xmlns="http://www.w3.org/2000/svg" xmlns:ev="http://www.w3.org/2001/xml-events" xmlns:xlink="http://www.w3.org/1999/xlink"><defs /><rect fill="#1a1a1a" height="200" width="200" x="0" y="0" /><text alignment-baseline="middle" fill="#e1ed5e" style="dominant-baseline: central; font-size:9.0px; font-family:Arial;" text-anchor="middle" x="100.0" y="100.0">2020</text><line stroke="#e1ed5e" stroke-width="0.3" x1="100.0" x2="100.0" y1="15.0" y2="10.0" /><path d="M 100.0 14.0 a86.0,86.0 0 0,1 42.35913384403234,11.155469271406648" fill="none" id="id1" stroke="none" /><text fill="#e1ed5e" style="font-size:6.75px; font-family:Arial;" text-anchor="middle"><textPath startOffset="22.145653131862478" xlink:href="#id1">January</textPath></text><path d="M 109.71004243097381 81.37971332152246 l 6.525240327100135 -12.513008712401861 a35.112198565888264,35.112198565888264 0 0,0 0.5320521088566081,0.28328778001193267 l -6.739081251743302 12.399150464667356" fill="#ffa50f" stroke="none" /><path d="M 110.02825361518725 81.54914285379988 l 17.37520429695842 -31.968418896357957 a57.385127883436915,57.385127883436915 0 0,0 0.8614759561266149,0.4778461909748901 l -17.921424441241133 31.665439789949918" fill="#51ff2b" stroke="none" /><line stroke="#e1ed5e" stroke-width="0.3" x1="143.13028292997686" x2="145.6673583964461" y1="26.7553504044142" y2="22.446841604673864" /><path d="M 143.63769802327073 25.89364864446614 a86.0,86.0 0 0,1 29.32050498858742,28.57503671076993" fill="none" id="id2" stroke="none" /><text fill="#e1ed5e" style="font-size:6.75px; font-family:Arial;" text-anchor="middle"><textPath startOffset="20.669276256404974" xlink:href="#id2">February</textPath></text><path d="M 112.45986205192187 83.09580414077388 l 14.746505307624581 -20.006466598139703 a45.85393579556927,45.85393579556927 0 0,0 0.6296116825395248,0.47247234434374696 l -15.08776997907487 19.75037522653194" fill="#d1ff1c" stroke="none" /><path d="M 113.86319453409587 84.22622945171908 l 1.662877677932336 -1.8920495472419272 a23.518931055226407,23.518931055226407 0 0,0 0.3009694907747213,0.2691287745207303 l -1.695112195530433 1.8632252428378098" fill="#ff0000" stroke="none" /><path d="M 114.39649973595853 84.71141617570332 l 18.339342494784717 -19.4757461991739 a47.75137703288661,47.75137703288661 0 0,0 0.5919522514037905,0.5670768663431732 l -18.67096723205382 19.158057202525146" fill="#bbff1f" stroke="none" /><path d="M 114.91283532996326 85.21462403516908 l 44.73850598988975 -44.35612789449276 a84.0,84.0 0 0,0 1.0064527953967528,1.032709231729032 l -45.49334558643732 43.581595970695986" fill="#4dd2ff" stroke="none" /><line stroke="#e1ed5e" stroke-width="0.3" x1="172.87174338648825" x2="177.1583165268699" y1="56.24261187166439" y2="53.66864786411523" /><path d="M 173.72905801456457 55.72781907015455 a86.0,86.0 0 0,1 12.242430191666344,42.057860355516425" fill="none" id="id3" stroke="none" /><text fill="#e1ed5e" style="font-size:6.75px; font-family:Arial;" text-anchor="middle"><textPath startOffset="22.145653131862474" xlink:href="#id3">March</textPath></text><path d="M 120.16314734710363 94.1308016681162 l 4.377629451904797 -1.2742641331942532 a25.559318885461906,25.559318885461906 0 0,0 0.11901089248414658,0.422327672556731 l -4.398858836463526 1.1989285367345093" fill="#ff1e03" stroke="none" /><path d="M 120.26092885502905 94.47779374421319 l 9.56977980194542 -2.6082860399407637 a30.918862914864405,30.918862914864405 0 0,0 0.13517508843528914,0.5132818283212672 l -9.61314437118544 2.4436237072466978" fill="#ff6b09" stroke="none" /><path d="M 120.9064616781168 98.02013634271609 l 5.683923363907471 -0.5382734521148781 a26.70935400163844,26.70935400163844 0 0,0 0.03930901772734497,0.4568303712181508 l -5.692326004332557 0.4406220335210653" fill="#ff2f04" stroke="none" /><path d="M 120.93736805541906 98.37931529534042 l 2.759165855459072 -0.21357688739698535 a23.76741961125547,23.76741961125547 0 0,0 0.027995800690961203,0.40705279781291753 l -2.762425617315099 0.16618066542973364" fill="#ff0400" stroke="none" /><path d="M 120.96210409425399 98.7389718711861 l 2.7872391569948975 -0.16767338635941564 a23.79227800957907,23.79227800957907 0 0,0 0.021026041098339353,0.407899580155762 l -2.7897067875498096 0.11980201282692303" fill="#ff0400" stroke="none" /><path d="M 120.98066250479742 99.09900007780936 l 17.05230272804475 -0.7322992506850744 a38.06801952545861,38.06801952545861 0 0,0 0.022433507477983193,0.6531270931177857 l -17.06236092251958 0.43946589300316874" fill="#ffcc13" stroke="none" /><path d="M 120.99303781780057 99.45929381324524 l 5.810131701576421 -0.1496483826765898 a26.812058587806995,26.812058587806995 0 0,0 0.007901345645296072,0.4602137717711005 l -5.811844478820383 0.04988769493642294" fill="#ff3104" stroke="none" /><line stroke="#e1ed5e" stroke-width="0.3" x1="184.99686870605535" x2="189.99668451229388" y1="99.2704041080226" y2="99.22748670261217" /><path d="M 185.99683186730306 99.26182062694052 a86.0,86.0 0 0,1 -10.086455211305974,41.156179273409016" fill="none" id="id4" stroke="none" /><text fill="#e1ed5e" style="font-size:6.75px; font-family:Arial;" text-anchor="middle"><textPath startOffset="21.40746469413373" xlink:href="#id4">April</textPath></text><path d="M 120.99922638620191 100.18025310272382 l 8.182875701509976 0.07024014634033159 a29.183177159546304,29.183177159546304 0 0,0 -0.00860009942952531,0.5009126766180682 l -8.180464170481784 -0.21069973892747076" fill="#ff5307" stroke="none" /><path d="M 120.9064616781168 101.97986365728391 l 12.145577205940537 1.150198789111578 a33.199918152181844,33.199918152181844 0 0,0 -0.058601977890756524,0.5669209766642488 l -12.124042835568114 -1.3585242880587582" fill="#ff8b0c" stroke="none" /><path d="M 120.51834098615036 104.47187691870673 l 12.181572995283265 2.654917137205099 a33.4675300538976,33.4675300538976 0 0,0 -0.12715930422826066,0.5602873568959275 l -12.13420282949734 -2.8636388280400435" fill="#ff8e0d" stroke="none" /><path d="M 120.35273937422433 105.17358676015961 l 10.043027228911955 2.552898248636938 a31.362416966546004,31.362416966546004 0 0,0 -0.13711427547224403,0.5206452373584336 l -9.99772347263498 -2.724923990368175" fill="#ff710a" stroke="none" /><path d="M 119.94978838288452 106.5578916946017 l 2.382967493247199 0.7833287467790215 a23.50841344267711,23.50841344267711 0 0,0 -0.12931259373016163,0.38228970602111284 l -2.3691694779446726 -0.8241201272742948" fill="#ff0000" stroke="none" /><path d="M 119.31412917781788 108.2440532568976 l 2.713389786619861 1.1581847517778416 a23.95023322016814,23.95023322016814 0 0,0 -0.16464772356114202,0.37674621287314997 l -2.6931081810417536 -1.2045930344268363" fill="#ff0701" stroke="none" /><path d="M 119.16976305983485 108.57439118712176 l 10.333922201213197 4.622231958418777 a32.320555478339166,32.320555478339166 0 0,0 -0.23088502029832852,0.504525437463856 l -10.253052716059813 -4.798946378097322" fill="#ff7f0b" stroke="none" /><line stroke="#e1ed5e" stroke-width="0.3" x1="174.33088141563837" x2="178.70328620479359" y1="141.23008692659167" y2="143.65538615756765" /><path d="M 175.20536237346943 141.71514677278685 a86.0,86.0 0 0,1 -30.301960400862466,31.631185727798858" fill="none" id="id5" stroke="none" /><text fill="#e1ed5e" style="font-size:6.75px; font-family:Arial;" text-anchor="middle"><textPath startOffset="22.145653131862474" xlink:href="#id5">May</textPath></text><path d="M 117.81537515405839 111.11811171558189 l 5.646362427309 3.523747757800366 a27.65568981557358,27.65568981557358 0 0,0 -0.25480412881883535,0.40059441234408594 l -5.585040606864275 -3.620155844823124" fill="#ff3d05" stroke="none" /><path d="M 117.21940702142032 112.02048342749411 l 7.193950762515487 5.0219363426077654 a29.773412802478965,29.773412802478965 0 0,0 -0.29615316188917273,0.4165765104736728 l -7.106682502096353 -5.1446900797909425" fill="#ff5b08" stroke="none" /><path d="M 116.57777611688842 112.89097897827486 l 8.891896227643949 6.914392288769451 a32.26386431231232,32.26386431231232 0 0,0 -0.3437385487566654,0.43430242730159563 l -8.771891248245723 -7.06601465998573" fill="#ff7e0b" stroke="none" /><path d="M 115.41159269507618 114.26474011684316 l 2.1721838929284387 2.010540982472005 a23.95984085837351,23.95984085837351 0 0,0 -0.281977852035934,0.2994507072214713 l -2.1373502071562447 -2.047533149637973" fill="#ff0701" stroke="none" /><path d="M 115.16444852881244 114.52719865689866 l 2.9413417961593815 2.817738904877452 a25.073222814663357,25.073222814663357 0 0,0 -0.30041684751695286,0.3082541508321703 l -2.8925381474916216 -2.8678157477773594" fill="#ff1702" stroke="none" /><path d="M 114.91283532996324 114.78537596483092 l 6.141081750497618 6.088594187681749 a29.647766431198686,29.647766431198686 0 0,0 -0.3614317979279267,0.3583426558242798 l -6.035658032439726 -6.193116853734691" fill="#ff5908" stroke="none" /><path d="M 114.65682725009322 115.03919595460226 l 5.421236915286962 5.5626666599898416 a28.7674365180433,28.7674365180433 0 0,0 -0.3566169160366502,0.34163093856210847 l -5.324947513384999 -5.65490972885753" fill="#ff4d07" stroke="none" /><path d="M 113.59037401385872 116.0094264158162 l 2.8906491644185413 3.4051774472511047 a25.466663860088552,25.466663860088552 0 0,0 -0.3357060085592485,0.28005789213806437 l -2.831768821697398 -3.4542975233010393" fill="#ff1d02" stroke="none" /><path d="M 113.31354834802062 116.24036423190432 l 3.0103706518567566 3.6721627158440877 a25.748379773480202,25.748379773480202 0 0,0 -0.34423037076214114,0.27728761989656975 l -2.946889510739363 -3.723298629534061" fill="#ff2103" stroke="none" /><path d="M 112.7482090630111 116.68781488649013 l 4.854265980190387 6.354389992100584 a28.99638483179379,28.99638483179379 0 0,0 -0.3981438523162348,0.2987745693205002 l -4.744469138963386 -6.4367835886851" fill="#ff5007" stroke="none" /><line stroke="#e1ed5e" stroke-width="0.3" x1="143.1302829299769" x2="145.66735839644613" y1="173.24464959558577" y2="177.55315839532614" /><path d="M 143.63769802327073 174.10635135553383 a86.0,86.0 0 0,1 -40.68552437913181,11.842963189579606" fill="none" id="id6" stroke="none" /><text fill="#e1ed5e" style="font-size:6.75px; font-family:Arial;" text-anchor="middle"><textPath startOffset="21.407464694133747" xlink:href="#id6">June</textPath></text><line stroke="#e1ed5e" stroke-width="0.3" x1="101.45913802915013" x2="101.54496967792366" y1="184.9874750549273" y2="189.98673829345242" /><path d="M 101.47630435890484 185.9873277026323 a86.0,86.0 0 0,1 -42.54439059252881,-10.42667462771756" fill="none" id="id7" stroke="none" /><text fill="#e1ed5e" style="font-size:6.75px; font-family:Arial;" text-anchor="middle"><textPath startOffset="22.145653131862474" xlink:href="#id7">July</textPath></text><line stroke="#e1ed5e" stroke-width="0.3" x1="58.13341422392154" x2="55.67067388415222" y1="173.97424548756322" y2="178.32567169271397" /><path d="M 57.64086615596768 174.84453072859336 a86.0,86.0 0 0,1 -31.369924170532247,-30.572349798747897" fill="none" id="id8" stroke="none" /><text fill="#e1ed5e" style="font-size:6.75px; font-family:Arial;" text-anchor="middle"><textPath startOffset="22.145653131862474" xlink:href="#id8">August</textPath></text><line stroke="#e1ed5e" stroke-width="0.3" x1="26.387840678322732" x2="22.057713659400548" y1="142.50000000000003" y2="145.00000000000006" /><path d="M 25.521815274538298 143.00000000000003 a86.0,86.0 0 0,1 -11.493303480769221,-40.785679425670985" fill="none" id="id9" stroke="none" /><text fill="#e1ed5e" style="font-size:6.75px; font-family:Arial;" text-anchor="middle"><textPath startOffset="21.40746469413373" xlink:href="#id9">September</textPath></text><line stroke="#e1ed5e" stroke-width="0.3" x1="15.003131293944662" x2="10.003315487706104" y1="100.72959589197737" y2="100.7725132973878" /><path d="M 14.003168132696942 100.73817937305945 a86.0,86.0 0 0,1 10.791469493833604,-42.45332614584628" fill="none" id="id10" stroke="none" /><text fill="#e1ed5e" style="font-size:6.75px; font-family:Arial;" text-anchor="middle"><textPath startOffset="22.145653131862435" xlink:href="#id10">October</textPath></text><line stroke="#e1ed5e" stroke-width="0.3" x1="26.387840678322718" x2="22.05771365940052" y1="57.49999999999999" y2="54.99999999999999" /><path d="M 25.521815274538284 56.99999999999999 a86.0,86.0 0 0,1 29.574782752854787,-30.34633250058573" fill="none" id="id11" stroke="none" /><text fill="#e1ed5e" style="font-size:6.75px; font-family:Arial;" text-anchor="middle"><textPath startOffset="21.40746469413373" xlink:href="#id11">November</textPath></text><line stroke="#e1ed5e" stroke-width="0.3" x1="56.869717070023135" x2="54.33264160355391" y1="26.7553504044142" y2="22.446841604673864" /><path d="M 56.362301976729285 25.89364864446614 a86.0,86.0 0 0,1 42.16139366436587,-11.88097634709845" fill="none" id="id12" stroke="none" /><text fill="#e1ed5e" style="font-size:6.75px; font-family:Arial;" text-anchor="middle"><textPath startOffset="22.145653131862474" xlink:href="#id12">December</textPath></text></svg>